<svg xmlns="http://www.w3.org/2000/svg" xmlns:xlink="http://www.w3.org/1999/xlink" version="1.1" width="24" height="24" viewBox="0 0 1000 1000" xml:space="preserve">
<desc>Created with Fabric.js 3.5.0</desc>
<defs>
</defs>
<rect x="0" y="0" width="100%" height="100%" fill="rgba(255,255,255,0)"/>
<g transform="matrix(26.803 0 0 26.803 279.1966 500)" id="647158">
<path style="stroke: none; stroke-width: 1; stroke-dasharray: none; stroke-linecap: butt; stroke-dashoffset: 0; stroke-linejoin: miter; stroke-miterlimit: 4; is-custom-font: none; font-file-url: none; fill: rgb(0,5,21); fill-rule: nonzero; opacity: 1;" vector-effect="non-scaling-stroke" transform=" translate(-10.95, -12.25)" d="M 8 22 c -1.4 0 -2.6 -0.5 -3.5 -1.5 c -1 -1 -1.5 -2.2 -1.5 -3.5 s 0.5 -2.6 1.5 -3.5 c 1 -1 2.2 -1.5 3.5 -1.5 v 2 c -0.8 0 -1.5 0.3 -2.1 0.9 s -0.9 1.3 -0.9 2.1 s 0.3 1.5 0.9 2.1 s 1.3 0.9 2.1 0.9 s 1.5 -0.3 2.1 -0.9 c 0.6 -0.6 0.9 -1.3 0.9 -2.1 h 2 c 0 1.4 -0.5 2.6 -1.5 3.5 c -1 1 -2.2 1.5 -3.5 1.5 Z M 11 16 c -0.7 0 -1.3 -0.3 -1.7 -0.9 c -0.4 -0.6 -0.4 -1.3 -0.2 -2 l 1.9 -4.1 h -2.3 l -0.3 0.7 c 0 0.2 -0.2 0.4 -0.5 0.5 c -0.2 0.1 -0.5 0.1 -0.7 0 c -0.3 0 -0.5 -0.3 -0.6 -0.5 c -0.1 -0.3 -0.1 -0.5 0 -0.8 l 0.3 -0.8 c 0.2 -0.4 0.4 -0.7 0.7 -0.9 s 0.7 -0.3 1.1 -0.3 h 5.2 c 0.8 0 1.3 0.3 1.7 0.9 c 0.4 0.6 0.4 1.3 0.1 1.9 l -1.7 3.6 h 2.9 c 0.5 0 1 0.2 1.4 0.6 c 0.4 0.4 0.6 0.9 0.6 1.4 v 4.5 c 0 0.3 0 0.5 -0.3 0.7 s -0.4 0.3 -0.7 0.3 s -0.5 0 -0.7 -0.3 s -0.3 -0.4 -0.3 -0.7 v -4 h -6 Z M 16 6.5 c -0.6 0 -1 -0.2 -1.4 -0.6 c -0.4 -0.4 -0.6 -0.9 -0.6 -1.4 s 0.2 -1 0.6 -1.4 c 0.4 -0.4 0.9 -0.6 1.4 -0.6 s 1 0.2 1.4 0.6 c 0.4 0.4 0.6 0.9 0.6 1.4 s -0.2 1 -0.6 1.4 c -0.4 0.4 -0.9 0.6 -1.4 0.6 Z" stroke-linecap="round"/>
</g>
<g transform="matrix(0 -10.7633 8.4438 0 732.1741 500)" id="370752">
<path style="stroke: none; stroke-width: 1; stroke-dasharray: none; stroke-linecap: butt; stroke-dashoffset: 0; stroke-linejoin: miter; stroke-miterlimit: 4; is-custom-font: none; font-file-url: none; fill: rgb(0,0,0); fill-rule: evenodd; opacity: 1;" vector-effect="non-scaling-stroke" transform=" translate(-9.7162, -26.9714)" d="M 5.84726 35.0285 L 6.10456 35.5428 C 6.19032 35.8 6.36186 35.9714 6.36186 35.8857 C 6.36186 35.8 6.44762 35.3714 6.36186 34.9428 C 6.27609 33.4857 6.19032 31.3428 6.10456 29.2 C 6.01879 26.7143 6.01879 16.6 6.10456 14.9714 C 6.10456 14.3714 6.19033 13.2571 6.19033 12.6571 C 6.19033 11.9714 6.27609 11.1143 6.36186 10.7714 C 6.44762 9.91426 6.53339 9.48569 6.61915 8.28569 C 6.70492 6.82855 6.87645 6.22855 7.04798 6.31426 C 7.13375 6.31426 7.13375 6.31427 7.13375 6.22855 C 7.13375 6.14284 7.04798 6.14284 7.04798 6.14284 C 6.87645 6.14284 6.96222 5.19998 7.30528 3.65713 C 7.56258 2.2857 7.81987 1.59998 8.07717 1.25712 C 8.42024 0.914267 8.506 0.914264 8.506 1.42855 C 8.506 1.77141 8.506 1.7714 8.59177 1.59998 C 8.7633 1.25712 8.7633 1.59998 8.506 2.54284 C 8.42024 3.05712 8.2487 4.08569 8.2487 4.85712 C 8.07717 6.48569 7.99141 6.74284 7.90564 6.22855 C 7.81988 5.97141 7.81988 6.22855 7.73411 7.0857 C 7.64834 7.77141 7.64834 8.3714 7.56258 8.45712 C 7.47681 8.71426 7.56258 9.99997 7.64834 9.91426 C 7.73411 9.82854 7.73411 10.2571 7.73411 11.0285 C 7.73411 11.7143 7.73411 12.2286 7.81988 12.2286 C 8.16294 12.2286 8.16294 12.2285 8.07717 12.1428 C 7.99141 12.0571 7.90564 11.8 7.99141 10.8571 C 7.99141 10.1714 8.07717 9.65712 8.16294 9.57141 C 8.2487 9.48569 8.2487 9.31426 8.16294 9.14284 C 8.07717 9.05712 8.16294 8.9714 8.2487 8.88569 C 8.33447 8.79998 8.42024 8.71426 8.33447 8.71426 C 8.2487 8.71426 8.2487 8.54284 8.2487 8.28569 C 8.2487 7.94284 8.33447 7.85712 8.42024 8.02855 C 8.506 8.11426 8.59177 8.19998 8.59177 8.11427 C 8.59177 8.02855 8.506 7.94284 8.42024 7.85712 C 8.33447 7.77141 8.2487 7.68569 8.33447 7.59998 C 8.33447 7.59998 8.42024 7.08569 8.42024 6.57141 C 8.506 5.19998 8.7633 2.97141 9.0206 2.54284 C 9.10636 2.37141 9.19213 2.02855 9.27789 1.6857 C 9.36366 1.0857 9.53519 0.828552 9.70672 0.828552 C 9.87825 0.828552 9.96402 0.914261 9.96402 1.59998 C 9.96402 2.02855 10.0498 2.9714 10.0498 3.74283 C 10.0498 4.51426 10.0498 5.11427 10.1356 5.11427 C 10.1356 5.11427 10.2213 4.59998 10.2213 3.99998 C 10.2213 3.31426 10.3071 2.37141 10.3071 1.85712 L 10.3929 0.914259 H 10.7359 C 11.1647 0.914259 11.3363 1.1714 11.422 1.59998 V 1.94284 L 11.5078 1.59998 C 11.5936 1.08569 11.7651 0.999978 11.8509 1.42855 C 12.1082 2.02855 12.1939 3.65713 12.3655 7.94284 C 12.4512 10.2571 12.4512 11.0286 12.537 11.9714 C 12.6228 12.9143 12.7085 14.5428 12.7943 16.4285 C 12.7943 17.2 12.8801 18.1428 12.8801 18.5714 C 12.9658 19.6 12.9658 20.3714 13.3947 27.9143 C 13.5662 31.4285 13.7377 34.3428 13.8235 34.4286 C 13.995 34.8571 14.0808 33.9143 13.995 32.5428 C 13.9092 30.1428 13.9092 30.0571 13.8235 29.9714 C 13.7377 29.7143 13.652 28.5143 13.5662 25 C 13.5662 24.3143 13.4804 23.1143 13.4804 22.3428 C 13.4804 21.5714 13.3947 20.3714 13.3947 19.6 C 13.3947 18.8285 13.3089 18.2285 13.3089 18.1428 C 13.3089 18.0571 13.2231 17.7143 13.2231 17.2857 C 13.1374 16.6 13.2231 16.5143 13.3947 16.4285 C 13.5662 16.3428 13.652 16.3428 13.652 16.5143 C 13.652 16.6 13.7377 17.5428 13.7377 18.5714 C 13.8235 19.6 13.9093 20.8 13.9093 21.2286 C 13.9093 21.6571 13.995 22.3428 13.995 22.8571 C 13.995 23.3714 14.1665 24.7428 14.2523 25.9428 C 14.3381 27.1428 14.5096 29.1143 14.5096 30.3143 C 14.5954 31.5143 14.6811 32.6285 14.6811 32.8857 L 14.7669 33.3143 L 15.1957 33.0571 C 15.7103 32.7143 15.7961 32.7143 15.7961 33.0571 C 15.7961 33.3143 15.7961 33.3143 16.1392 32.9714 C 16.4822 32.6286 16.9111 32.5428 16.9968 32.7143 C 16.9968 32.8 17.1684 32.8 17.3399 32.6285 C 17.6829 32.4571 18.1975 32.4571 18.1975 32.7143 C 18.1975 32.8 18.2833 32.8857 18.3691 32.8 C 18.8837 32.5428 18.8837 32.5428 18.8837 32.8857 C 18.8837 33.0571 18.9694 33.1428 19.0552 33.1428 C 19.141 33.1428 19.2267 33.2285 19.141 33.3143 C 19.0552 33.4 19.0552 33.6571 19.0552 33.7428 C 19.0552 33.9143 18.9694 34.1714 18.8837 34.3428 C 18.6264 34.9428 18.026 37.6857 17.8545 39.4 C 17.7687 40.0857 17.5972 41.2857 17.5114 42.0571 C 17.3399 43.3428 16.7395 46.5143 16.3965 47.6285 C 15.7103 50.1143 15.2815 51.3143 14.9384 51.3143 C 14.8527 51.3143 14.7669 51.4 14.6811 51.4857 C 14.5096 51.7428 13.995 51.8285 13.7377 51.7428 C 13.4804 51.6571 12.9658 52 13.0516 52.2571 C 13.0516 52.3428 13.0516 52.4286 12.9658 52.4286 C 12.8801 52.4286 12.7085 52.5143 12.537 52.6 C 12.3655 52.6857 12.2797 52.6857 12.1939 52.6 C 12.1082 52.5143 12.1082 52.5143 12.1082 52.5143 C 12.1082 52.6857 11.2505 53.0286 10.7359 53.1143 C 10.3928 53.1143 10.2213 53.1143 9.96402 52.9428 C 9.79249 52.7714 9.53519 52.7714 9.36366 52.7714 C 8.59177 52.9428 7.56258 51.9143 6.19033 49.3428 C 5.93303 48.9143 5.58996 48.2286 5.33267 47.8 C 4.81807 46.9428 4.81807 46.7714 4.9896 46.8571 C 5.07537 46.8571 4.9896 46.7714 4.81807 46.6857 C 4.64654 46.5143 4.56077 46.3428 4.56077 46.2571 C 4.56077 46.1714 4.56077 46.1714 4.56077 46.1714 C 4.56077 46.1714 4.38924 46 4.30348 45.8286 C 4.21771 45.6571 4.13195 45.4857 4.04618 45.4857 C 3.96041 45.4857 3.96041 45.4 3.96041 45.3143 C 3.96041 45.2285 3.87465 45.0571 3.87465 44.9714 C 3.78888 44.8857 2.93122 43.1714 2.50239 42.2286 C 2.41663 41.9714 2.07356 41.2857 1.7305 40.6 C 1.04437 39.1428 0.358248 37.3428 0.272482 36.7428 C 0.186716 35.9714 0.444013 35.0286 0.787077 35.1143 C 0.872842 35.1143 0.958609 35.1143 0.872843 35.0285 C 0.872843 34.8571 0.872842 34.7714 1.21591 34.8571 C 1.38744 34.9428 1.55897 35.2 1.7305 35.6285 C 1.90203 36.0571 2.07356 36.3143 2.07356 36.3143 C 2.07356 36.3143 2.15933 35.8857 2.07356 35.4571 C 2.07356 34.6 2.15933 34.3428 2.58816 34.3428 C 2.84546 34.3428 2.93122 34.4285 3.18852 34.7714 L 3.53158 35.2 V 34.1714 L 4.13194 34.2571 C 4.56077 34.3428 4.73231 34.4286 4.90384 34.5143 C 5.07537 34.6857 5.07537 34.6857 5.16113 34.5143 C 5.33267 34.2571 5.5042 34.4286 5.7615 34.9428 L 5.93303 35.3714 L 5.84726 35.0285 Z M 12.8801 16.1714 C 12.8801 15.9143 12.8801 15.4857 12.7943 15.4 C 12.7943 15.2286 12.7085 14.3714 12.7085 13.4285 C 12.6228 11.9714 12.7085 11.8 12.7943 11.8 C 12.8801 11.8 12.9658 11.9714 12.9658 12.2286 C 13.0516 13.6 13.1374 15.4 13.2231 16 C 13.3089 16.3428 13.2231 16.5143 13.0516 16.6 C 12.9658 16.6857 12.9658 16.6 12.8801 16.1714 Z M 12.7085 11.2 C 12.7085 11.0285 12.6228 10.5143 12.6228 9.99998 C 12.537 9.48569 12.537 8.97141 12.6228 8.79998 C 12.7085 8.62855 12.7085 8.45712 12.6228 8.45712 C 12.537 8.45712 12.537 8.19998 12.537 7.85712 C 12.537 7.51426 12.4512 6.99998 12.4512 6.57141 C 12.4512 6.14284 12.4512 5.79998 12.537 5.71426 C 12.6228 5.62855 12.6228 5.54283 12.537 5.62854 C 12.4512 5.71426 12.3655 5.54283 12.3655 5.19997 C 12.3655 4.94283 12.3655 4.6857 12.4512 4.6857 C 12.537 4.59998 12.537 4.34283 12.4512 4.34283 C 12.3655 4.34283 12.3655 4.25712 12.3655 4.1714 C 12.3655 4.08569 12.3655 3.57141 12.2797 2.97141 C 12.1939 1.42855 12.3655 2.19998 12.6228 4.1714 C 12.7085 5.11426 12.7943 6.5714 12.8801 7.34283 C 12.8801 8.11426 12.9658 8.79998 12.9658 8.79998 C 12.9658 8.8857 13.0516 9.22855 13.0516 9.65713 C 13.0516 10.0857 13.0516 10.6 13.1374 10.9428 C 13.2231 11.3714 13.1374 11.4571 13.0516 11.4571 C 12.7943 11.5428 12.7085 11.4571 12.7085 11.2 Z M 7.81988 9.39998 C 7.81988 9.22855 7.90564 8.8857 7.90564 8.54284 L 7.99141 8.02855 V 8.71426 C 7.99141 9.05712 7.99141 9.48569 7.90564 9.57141 C 7.81988 9.65712 7.81988 9.65712 7.81988 9.39998 Z M 7.90564 7.85712 C 7.90564 7.68569 7.99141 7.51426 7.99141 7.42855 C 8.07717 7.34284 8.07717 7.34283 8.07717 7.59998 C 8.07717 8.02855 7.90564 8.19998 7.90564 7.85712 Z M 7.99141 6.91426 C 7.99141 6.82854 8.07717 6.65713 8.07717 6.65713 C 8.07717 6.65713 8.07717 6.74283 8.07717 6.91426 C 8.07717 6.99997 7.99141 7.1714 7.99141 7.1714 C 7.99141 7.1714 7.99141 7.08569 7.99141 6.91426 Z" stroke-linecap="round"/>
</g>
</svg>