<svg version="1.1" id="Layer_1" xmlns="http://www.w3.org/2000/svg" xmlns:xlink="http://www.w3.org/1999/xlink" x="0px" y="0px"
	 width="15%" viewBox="0 0 267 2300" enable-background="new 0 0 267 257" xml:space="preserve">
<path fill="#FEFEFE" opacity="1.000000" stroke="none" 
	d="
M64.000000,258.000000 
	C43.026123,258.000000 22.052246,258.000000 1.050657,258.000000 
	C1.050657,172.333328 1.050657,86.666656 1.050657,1.000000 
	C11.421770,1.000000 21.742228,1.000000 32.528259,1.212107 
	C32.993839,1.424214 32.986237,1.848404 32.554256,1.926528 
	C29.641212,2.004651 27.160149,2.004651 24.100437,2.004651 
	C31.248451,15.978876 38.174252,29.518679 45.576843,43.990601 
	C30.315641,43.990601 16.249512,43.990601 1.783874,43.990601 
	C2.249204,45.900066 2.508682,47.178417 2.872378,48.426399 
	C16.421366,94.918175 29.950171,141.415863 43.549931,187.892792 
	C50.296684,210.949692 57.176247,233.967758 63.998280,257.252563 
	C64.000839,257.501709 64.000000,258.000000 64.000000,258.000000 
z"/>
<path fill="#FEFEFE" opacity="1.000000" stroke="none" 
	d="
M268.000000,48.000000 
	C268.000000,117.887268 268.000000,187.774536 268.000000,258.000000 
	C247.647018,258.000000 227.292175,258.000000 206.405334,257.722290 
	C205.846741,257.256531 205.820129,257.068481 205.919403,256.529724 
	C220.361893,206.386185 234.653381,156.586166 249.007523,106.804199 
	C254.665039,87.183258 260.462311,67.602615 266.496643,48.004311 
	C267.198212,48.003334 267.599091,48.001667 268.000000,48.000000 
z"/>
<path fill="#FBFBFB" opacity="1.000000" stroke="none" 
	d="
M268.000000,47.531342 
	C267.599091,48.001667 267.198212,48.003334 266.488342,47.585068 
	C266.530182,45.489662 266.880951,43.814190 267.312042,41.755165 
	C252.599136,41.755165 238.502594,41.755165 223.612152,41.755165 
	C230.822815,28.407808 237.742905,15.598327 244.976059,2.209344 
	C217.594742,2.209344 191.279266,2.251621 164.964020,2.197937 
	C136.312714,2.139488 107.661583,1.991972 79.005966,1.662486 
	C79.001549,1.441686 79.000000,1.000000 79.000000,1.000000 
	C141.883011,1.000000 204.766037,1.000000 268.000000,1.000000 
	C268.000000,16.352446 268.000000,31.707563 268.000000,47.531342 
z"/>
<path fill="#727272" opacity="1.000000" stroke="none" 
	d="
M205.793518,256.880493 
	C205.820129,257.068481 205.846741,257.256531 205.936676,257.722290 
	C158.979111,258.000000 111.958214,258.000000 64.468658,258.000000 
	C64.000000,258.000000 64.000839,257.501709 64.466896,257.271729 
	C90.408966,257.046936 115.885002,257.076477 141.360977,257.049805 
	C162.838531,257.027283 184.316010,256.939423 205.793518,256.880493 
z"/>
<path fill="#EBEDEB" opacity="1.000000" stroke="none" 
	d="
M78.531342,1.000000 
	C79.000000,1.000000 79.001549,1.441686 78.543243,1.746742 
	C63.052032,1.984000 48.019135,1.916202 32.986237,1.848404 
	C32.986237,1.848404 32.993839,1.424214 32.996918,1.212107 
	C48.020893,1.000000 63.041790,1.000000 78.531342,1.000000 
z"/>
<path fill="#101010" opacity="1.000000" stroke="none" 
	d="
M32.554256,1.926528 
	C48.019135,1.916202 63.052032,1.984000 78.547653,1.967542 
	C107.661583,1.991972 136.312714,2.139488 164.964020,2.197937 
	C191.279266,2.251621 217.594742,2.209344 244.976059,2.209344 
	C237.742905,15.598327 230.822815,28.407808 223.612152,41.755165 
	C238.502594,41.755165 252.599136,41.755165 267.312042,41.755165 
	C266.880951,43.814190 266.530182,45.489662 266.187683,47.584373 
	C260.462311,67.602615 254.665039,87.183258 249.007523,106.804199 
	C234.653381,156.586166 220.361893,206.386185 205.919403,256.529724 
	C184.316010,256.939423 162.838531,257.027283 141.360977,257.049805 
	C115.885002,257.076477 90.408966,257.046936 64.464340,257.022583 
	C57.176247,233.967758 50.296684,210.949692 43.549931,187.892792 
	C29.950171,141.415863 16.421366,94.918175 2.872378,48.426399 
	C2.508682,47.178417 2.249204,45.900066 1.783874,43.990601 
	C16.249512,43.990601 30.315641,43.990601 45.576843,43.990601 
	C38.174252,29.518679 31.248451,15.978876 24.100437,2.004651 
	C27.160149,2.004651 29.641212,2.004651 32.554256,1.926528 
M149.499969,253.896729 
	C165.665985,253.897873 181.833374,253.787827 197.996979,253.985764 
	C201.607437,254.029968 203.112320,253.005814 204.115814,249.415970 
	C221.138382,188.519073 238.320068,127.666664 255.479965,66.808197 
	C257.356506,60.152973 259.315399,53.520981 261.421448,46.237091 
	C245.919449,46.237091 231.178802,46.237091 215.682983,46.237091 
	C222.811890,33.078354 229.569870,20.604296 236.701767,7.440046 
	C168.173157,7.440046 100.466042,7.440046 32.105839,7.440046 
	C38.850685,20.979588 45.432590,34.192047 52.281441,47.940365 
	C36.713749,47.940365 22.076075,47.940365 7.183720,47.940365 
	C7.440986,49.155094 7.581085,50.116924 7.849568,51.041477 
	C27.146275,117.492149 46.488472,183.929672 65.655144,250.417801 
	C66.614029,253.744125 68.308800,253.930099 71.002892,253.924606 
	C96.835159,253.871872 122.667587,253.895187 149.499969,253.896729 
z"/>
<path fill="#F8F4F3" opacity="1.000000" stroke="none" 
	d="
M148.999969,253.896729 
	C122.667587,253.895187 96.835159,253.871872 71.002892,253.924606 
	C68.308800,253.930099 66.614029,253.744125 65.655144,250.417801 
	C46.488472,183.929672 27.146275,117.492149 7.849568,51.041477 
	C7.581085,50.116924 7.440986,49.155094 7.183720,47.940365 
	C22.076075,47.940365 36.713749,47.940365 52.281441,47.940365 
	C45.432590,34.192047 38.850685,20.979588 32.105839,7.440046 
	C100.466042,7.440046 168.173157,7.440046 236.701767,7.440046 
	C229.569870,20.604296 222.811890,33.078354 215.682983,46.237091 
	C231.178802,46.237091 245.919449,46.237091 261.421448,46.237091 
	C259.315399,53.520981 257.356506,60.152973 255.479965,66.808197 
	C238.320068,127.666664 221.138382,188.519073 204.115814,249.415970 
	C203.112320,253.005814 201.607437,254.029968 197.996979,253.985764 
	C181.833374,253.787827 165.665985,253.897873 148.999969,253.896729 
M213.647202,178.018036 
	C213.803345,177.700089 213.959473,177.382126 214.613037,176.508057 
	C225.418335,137.902100 236.233154,99.298805 247.018250,60.687218 
	C248.564163,55.152763 248.497955,55.084019 242.731979,55.062469 
	C230.073441,55.015156 217.414612,55.042656 204.756104,54.989182 
	C202.882675,54.981274 201.010422,54.698845 198.449570,54.486324 
	C205.213898,41.516308 211.557419,29.353155 218.100784,16.806835 
	C161.502808,16.806835 105.553101,16.806835 48.852379,16.806835 
	C55.548904,30.614504 61.867947,43.643833 68.616516,57.558815 
	C51.986309,57.558815 36.422913,57.558815 20.239765,57.558815 
	C20.820719,59.837215 21.182396,61.425396 21.630827,62.988693 
	C27.730759,84.253944 33.797539,105.528862 39.967190,126.773895 
	C44.254543,141.537277 48.687397,156.258408 52.979660,171.563187 
	C53.301872,171.747849 53.624081,171.932495 53.969639,172.034851 
	C53.969639,172.034851 53.889530,172.064835 53.976418,172.915176 
	C54.017250,174.399200 53.746952,175.973007 54.145451,177.353806 
	C60.413692,199.073303 66.801498,220.758316 73.059647,242.480698 
	C73.829414,245.152588 75.083069,246.132248 77.948524,246.125092 
	C115.763382,246.030518 153.578598,246.080246 191.393448,245.984695 
	C192.700012,245.981400 194.003693,244.840424 195.261154,244.114227 
	C195.261154,244.114227 195.229523,244.235031 195.764359,243.705658 
	C196.089462,242.243622 196.414566,240.781601 197.098282,238.698074 
	C200.445312,226.340805 203.792343,213.983521 207.707870,201.054077 
	C208.461533,198.040680 209.215210,195.027283 210.287918,191.517929 
	C210.415955,190.955795 210.543991,190.393646 210.799255,189.532120 
	C210.799255,189.532120 210.677811,189.230362 211.076874,188.593292 
	C211.778214,185.100586 212.479553,181.607880 213.088211,178.088120 
	C213.088211,178.088120 213.099548,178.184006 213.647202,178.018036 
z"/>
<path fill="#9B0D12" opacity="1.000000" stroke="none" 
	d="
M53.055248,170.998413 
	C48.687397,156.258408 44.254543,141.537277 39.967190,126.773895 
	C33.797539,105.528862 27.730759,84.253944 21.630827,62.988693 
	C21.182396,61.425396 20.820719,59.837215 20.239765,57.558815 
	C36.422913,57.558815 51.986309,57.558815 68.616516,57.558815 
	C61.867947,43.643833 55.548904,30.614504 48.852379,16.806835 
	C105.553101,16.806835 161.502808,16.806835 218.100784,16.806835 
	C211.557419,29.353155 205.213898,41.516308 198.449570,54.486324 
	C201.010422,54.698845 202.882675,54.981274 204.756104,54.989182 
	C217.414612,55.042656 230.073441,55.015156 242.731979,55.062469 
	C248.497955,55.084019 248.564163,55.152763 247.018250,60.687218 
	C236.233154,99.298805 225.418335,137.902100 214.116730,176.889771 
	C213.446793,177.575653 213.273163,177.879822 213.099548,178.184006 
	C213.099548,178.184006 213.088211,178.088120 212.775131,178.110229 
	C207.972687,181.205551 207.688843,184.954865 210.677811,189.230362 
	C210.677811,189.230362 210.799255,189.532120 210.308624,189.450684 
	C208.549759,189.245544 207.281540,189.121857 205.901917,188.779297 
	C205.588608,188.286972 205.325302,188.099960 205.124298,187.729095 
	C206.734848,185.322830 208.410828,183.122116 203.542511,183.054169 
	C203.046539,182.881790 202.897095,182.654495 202.816849,182.050659 
	C202.469238,181.499557 202.188858,181.235291 201.703735,180.702789 
	C195.227386,173.112549 194.283966,164.011597 193.278702,154.784637 
	C193.401062,153.459076 193.347565,152.348068 193.101288,151.281586 
	C191.367538,143.773544 189.594116,136.274689 187.856415,128.826172 
	C187.879440,128.879471 187.771072,128.837784 188.035080,128.808868 
	C188.536377,128.529968 188.773682,128.279984 189.174713,127.786392 
	C189.857849,127.289429 190.377274,127.036087 191.083893,127.062149 
	C194.468704,127.528488 196.311508,126.346748 195.885162,122.870224 
	C195.934402,122.917519 195.802536,122.882080 196.081970,122.798134 
	C196.548019,122.386353 196.734650,122.058510 196.972900,121.528458 
	C197.184341,121.067429 197.416168,120.930840 198.088959,120.904694 
	C198.970230,119.926971 199.482559,118.961052 199.997437,117.997566 
	C200.000000,118.000000 199.994370,117.995964 200.231644,117.873375 
	C200.592361,117.428535 200.715790,117.106293 200.866806,116.851044 
	C200.894379,116.918037 200.781387,116.827324 201.161438,116.849091 
	C202.380676,115.984726 203.669037,115.233368 203.982285,114.189423 
	C205.441452,109.326691 206.982422,104.442322 207.823730,99.452652 
	C208.770370,93.838448 203.598969,85.480080 198.940125,84.041451 
	C198.976318,84.020744 198.958389,84.102180 198.851471,83.848068 
	C198.422028,83.442307 198.099503,83.290649 197.826355,83.127136 
	C197.875717,83.115280 197.844208,83.211792 197.863953,82.840256 
	C196.040588,81.000069 194.398666,78.740128 192.316727,78.210754 
	C186.006180,76.606148 179.525253,75.671638 173.756454,74.596436 
	C180.010925,67.396667 175.144821,58.979588 175.084961,50.706299 
	C175.238586,49.917751 175.450638,49.412544 176.040405,48.912262 
	C177.916168,47.947979 180.112778,47.306625 180.755936,45.936211 
	C181.844070,43.617722 183.083527,40.246471 182.133835,38.427704 
	C181.272842,36.778793 177.629578,36.273434 175.116211,35.875763 
	C172.056488,35.391644 168.894867,35.440468 165.778488,35.458843 
	C163.023163,35.475086 160.234787,35.577049 157.540085,36.071938 
	C156.889709,36.191383 156.551712,38.011787 156.104752,39.406590 
	C156.547882,40.823116 156.644302,42.305676 157.415131,42.874695 
	C162.599197,46.701580 162.071655,52.162682 162.155167,57.613274 
	C162.232132,62.638638 162.793945,67.656570 163.267273,72.991150 
	C164.230637,73.729553 165.068939,74.154579 166.728912,74.996201 
	C157.822922,74.996201 149.916016,74.921188 142.012772,75.058189 
	C140.392456,75.086273 138.785919,75.908043 136.974243,76.644211 
	C136.453598,77.961136 136.131714,78.997826 135.681488,80.175217 
	C135.808411,80.490082 136.063705,80.664230 136.582489,80.907043 
	C137.185577,81.093498 137.525192,81.211288 137.899323,81.506577 
	C137.933823,81.684059 138.018539,82.035614 138.066467,82.373581 
	C138.843811,83.034912 139.573227,83.358269 140.310013,83.736282 
	C140.317368,83.790932 140.243912,83.708679 140.159149,84.029816 
	C140.046951,84.569847 140.019516,84.788750 139.773163,85.115646 
	C139.281097,85.424706 139.098251,85.688416 139.003143,86.259933 
	C139.000549,86.505104 139.001099,86.995476 138.665588,86.996307 
	C137.882553,86.995644 137.435028,86.994156 136.831848,86.686417 
	C134.726074,85.300079 132.775955,84.219986 130.885651,83.100662 
	C130.945465,83.061432 130.870239,83.183098 130.879257,82.812851 
	C129.645767,81.269562 128.571716,79.386406 127.131943,79.044868 
	C120.459785,77.462112 113.667206,76.394600 106.961250,74.941765 
	C105.132477,74.545563 103.454948,73.451210 101.788414,72.770508 
	C101.868820,72.863747 101.665787,72.724411 102.087929,72.745407 
	C103.006020,71.375122 103.877129,69.999245 103.935028,68.589966 
	C104.236275,61.257801 104.330391,53.917122 104.542320,46.579098 
	C104.588020,46.578789 104.600677,46.488262 104.964279,46.604755 
	C105.748322,46.023354 106.168762,45.325459 106.775612,44.715340 
	C106.962013,44.803120 106.574051,44.664291 106.902687,44.638260 
	C107.458061,44.038456 107.684807,43.464684 107.943161,42.938919 
	C107.974785,42.986931 107.878891,42.923496 108.239761,42.897087 
	C110.716125,41.140965 110.902550,39.794765 107.901268,39.068230 
	C107.953011,39.043865 107.893402,39.141487 107.888260,38.737015 
	C106.776451,37.560017 105.690750,36.156822 104.559662,36.119217 
	C98.117226,35.905022 91.663033,35.966473 85.215614,36.085110 
	C84.468269,36.098858 83.738060,37.044197 82.730370,37.837814 
	C83.233879,39.995895 83.487221,42.592995 84.886566,43.604179 
	C87.938377,45.809452 89.019630,48.330280 88.949089,51.975132 
	C88.815002,58.902771 89.053726,65.837631 89.041664,73.157837 
	C88.011467,74.030548 87.091270,74.898392 86.140579,74.933197 
	C81.917892,75.087761 77.686440,74.994225 73.458214,75.008934 
	C70.490829,75.019257 67.450272,74.687035 64.588417,75.250031 
	C63.242516,75.514786 62.240395,77.527061 61.082493,78.747452 
	C62.082718,79.480469 63.082939,80.213478 64.327560,80.996567 
	C64.907784,81.205589 65.084641,81.470619 65.109253,82.179855 
	C65.598488,82.742249 66.080986,82.966522 66.662888,83.288902 
	C66.762291,83.387001 66.861206,83.648216 66.714767,83.870300 
	C66.848938,84.145576 67.129547,84.198776 67.493721,84.320763 
	C67.577286,84.389549 67.699104,84.568504 67.521950,84.982361 
	C67.567070,88.198891 67.975105,91.001106 67.982094,93.804329 
	C68.035683,115.299980 68.111328,136.796555 67.958176,158.291245 
	C67.902740,166.072235 69.577705,174.135910 65.110626,181.632233 
	C65.051582,181.844193 64.683090,182.084717 64.523666,182.191223 
	C64.176926,182.494797 64.096703,182.728622 64.147522,183.260712 
	C64.120300,183.689636 64.069138,183.857056 63.764526,184.016602 
	C63.342033,184.007462 63.172989,184.006210 62.681725,184.029510 
	C61.571117,184.705170 60.782730,185.356247 59.663357,185.821716 
	C58.976532,183.633301 57.896915,181.419891 58.406349,179.668808 
	C59.712227,175.180115 57.912312,173.102219 53.889530,172.064835 
	C53.889530,172.064835 53.969639,172.034851 53.880222,171.839478 
	C53.622978,171.340744 53.377792,171.125519 53.055248,170.998413 
z"/>
<path fill="#9A0D11" opacity="1.000000" stroke="none" 
	d="
M206.013306,188.998169 
	C207.281540,189.121857 208.549759,189.245544 210.245026,189.600372 
	C210.543991,190.393646 210.415955,190.955795 209.757538,191.837509 
	C208.531219,195.313477 207.835297,198.469864 207.139374,201.626251 
	C203.792343,213.983521 200.445312,226.340805 196.595596,238.890076 
	C195.556580,239.382187 194.547699,239.708954 194.562881,239.977936 
	C194.643372,241.404953 194.980972,242.817490 195.229523,244.235031 
	C195.229523,244.235031 195.261154,244.114227 194.796173,244.097961 
	C192.332138,244.054062 190.333084,244.002594 188.334030,244.002335 
	C153.171768,243.997543 118.009346,243.950272 82.847473,244.067093 
	C78.910133,244.080170 75.759964,243.145859 74.405899,239.396301 
	C72.954979,235.378540 72.110329,231.141846 71.280441,226.799561 
	C71.542526,224.823395 78.360970,224.501633 72.307152,221.230316 
	C71.841759,223.282166 71.420265,225.140472 70.705811,226.770844 
	C67.374855,215.652496 64.336861,204.762085 61.277775,193.796051 
	C64.337654,193.099091 65.974236,192.726303 68.200905,192.219131 
	C66.033211,190.878113 64.517715,189.940582 62.796440,188.740387 
	C61.727402,188.318466 60.864159,188.159241 60.000008,187.667847 
	C59.997513,186.892899 59.995926,186.450104 59.994343,186.007324 
	C60.782730,185.356247 61.571117,184.705170 62.797867,184.251114 
	C63.513329,184.623810 63.790421,184.799469 64.163681,185.134338 
	C64.259842,185.293564 64.156555,185.650955 64.220604,185.937683 
	C64.583748,186.461853 64.882843,186.699310 65.399597,186.944794 
	C65.617256,186.952835 66.015717,187.128860 66.212128,187.356094 
	C66.985573,187.702164 67.562614,187.820999 68.502121,187.951691 
	C69.584442,188.025879 70.304283,188.088196 71.252083,188.415863 
	C75.782349,193.918243 80.647537,188.232315 86.673279,189.585938 
	C87.150551,196.602798 87.646133,203.888809 88.133041,211.098404 
	C88.124367,211.021988 88.190468,211.160873 87.779617,211.119385 
	C86.043106,211.194534 84.717453,211.311142 83.202148,211.444443 
	C83.727280,213.514008 84.086311,214.928955 84.407394,216.352646 
	C84.369453,216.361389 84.389862,216.436554 84.202972,216.370392 
	C83.894753,216.348373 83.773438,216.392517 83.652122,216.436646 
	C83.807014,216.617615 83.961906,216.798553 84.121719,217.293137 
	C84.400177,218.583008 84.673721,219.559265 85.172150,220.920288 
	C86.334930,221.541901 87.272461,221.983688 88.210777,221.985367 
	C108.943321,222.022537 129.676010,222.030121 150.408386,221.959030 
	C151.592255,221.954971 152.773682,221.231964 153.957886,220.887222 
	C153.959534,220.930878 153.874756,220.909729 154.222687,220.940186 
	C155.035538,220.967438 155.500427,220.964233 156.346619,220.979980 
	C158.732468,221.834488 160.724930,223.332062 162.744095,223.368988 
	C167.064621,223.448013 171.434311,222.996613 175.715103,222.324509 
	C178.507385,221.886124 182.492798,221.474625 183.608444,219.634903 
	C185.463959,216.575119 185.280609,212.685776 181.037430,210.139847 
	C179.452728,209.189026 178.301620,206.434021 178.139297,204.406647 
	C177.730591,199.302307 177.997314,194.143860 177.999969,188.659637 
	C179.116165,187.803635 180.225693,187.295135 181.266144,186.805573 
	C181.197037,186.824509 181.240799,186.688049 181.179169,187.029907 
	C181.634033,188.811737 182.150543,190.251709 182.694595,191.768463 
	C184.632553,190.431503 186.305145,189.277634 188.049240,188.074417 
	C190.109756,192.060211 192.072144,191.741470 193.362823,189.294785 
	C196.290466,189.947540 198.643753,190.472244 200.999374,191.294037 
	C203.224823,193.294312 203.960556,191.261902 205.222717,189.890137 
	C205.716919,189.581726 205.906982,189.320404 206.013306,188.998169 
M71.771027,219.239395 
	C71.942535,217.974380 72.114052,216.709381 72.285561,215.444366 
	C71.824600,215.405380 71.363640,215.366394 70.902679,215.327408 
	C70.978554,216.538239 71.054436,217.749054 71.771027,219.239395 
z"/>
<path fill="#920F11" opacity="1.000000" stroke="none" 
	d="
M63.002235,189.003052 
	C64.517715,189.940582 66.033211,190.878113 68.200905,192.219131 
	C65.974236,192.726303 64.337654,193.099091 61.277775,193.796051 
	C64.336861,204.762085 67.374855,215.652496 70.706421,226.771454 
	C71.000000,227.000000 71.001076,227.000702 71.001076,227.000702 
	C72.110329,231.141846 72.954979,235.378540 74.405899,239.396301 
	C75.759964,243.145859 78.910133,244.080170 82.847473,244.067093 
	C118.009346,243.950272 153.171768,243.997543 188.334030,244.002335 
	C190.333084,244.002594 192.332138,244.054062 194.819946,244.155701 
	C194.003693,244.840424 192.700012,245.981400 191.393448,245.984695 
	C153.578598,246.080246 115.763382,246.030518 77.948524,246.125092 
	C75.083069,246.132248 73.829414,245.152588 73.059647,242.480698 
	C66.801498,220.758316 60.413692,199.073303 54.145451,177.353806 
	C53.746952,175.973007 54.017250,174.399200 53.932976,172.490005 
	C57.912312,173.102219 59.712227,175.180115 58.406349,179.668808 
	C57.896915,181.419891 58.976532,183.633301 59.663357,185.821716 
	C59.995926,186.450104 59.997513,186.892899 60.001171,188.055496 
	C60.548717,189.777802 61.094193,190.780289 61.639668,191.782776 
	C62.093857,190.856201 62.548046,189.929626 63.002235,189.003052 
z"/>
<path fill="#940E0F" opacity="1.000000" stroke="none" 
	d="
M210.877350,188.911835 
	C207.688843,184.954865 207.972687,181.205551 212.821472,178.123764 
	C212.479553,181.607880 211.778214,185.100586 210.877350,188.911835 
z"/>
<path fill="#940E0F" opacity="1.000000" stroke="none" 
	d="
M207.423615,201.340164 
	C207.835297,198.469864 208.531219,195.313477 209.598007,192.085480 
	C209.215210,195.027283 208.461533,198.040680 207.423615,201.340164 
z"/>
<path fill="#920F11" opacity="1.000000" stroke="none" 
	d="
M195.496933,243.970337 
	C194.980972,242.817490 194.643372,241.404953 194.562881,239.977936 
	C194.547699,239.708954 195.556580,239.382187 196.416290,239.200821 
	C196.414566,240.781601 196.089462,242.243622 195.496933,243.970337 
z"/>
<path fill="#920F11" opacity="1.000000" stroke="none" 
	d="
M53.017456,171.280792 
	C53.377792,171.125519 53.622978,171.340744 53.868549,171.880615 
	C53.624081,171.932495 53.301872,171.747849 53.017456,171.280792 
z"/>
<path fill="#940E0F" opacity="1.000000" stroke="none" 
	d="
M213.373367,178.101013 
	C213.273163,177.879822 213.446793,177.575653 213.868011,177.167831 
	C213.959473,177.382126 213.803345,177.700089 213.373367,178.101013 
z"/>
<path fill="#FCF8F7" opacity="1.000000" stroke="none" 
	d="
M193.013641,155.019806 
	C194.283966,164.011597 195.227386,173.112549 201.666748,181.027924 
	C202.184372,181.860046 202.534225,182.098785 202.884064,182.337524 
	C202.897095,182.654495 203.046539,182.881790 203.613983,183.442963 
	C202.308899,184.766983 200.762314,186.349548 199.128326,186.445648 
	C193.181625,186.795380 187.205704,186.647995 181.240799,186.688049 
	C181.240799,186.688049 181.197037,186.824509 181.163925,186.460510 
	C181.065079,185.391464 180.999344,184.686401 181.167908,183.887177 
	C181.554092,183.506042 181.705978,183.219070 181.907867,182.935364 
	C181.957870,182.938629 181.941986,182.839661 182.169937,182.785980 
	C182.695908,182.563629 182.856216,182.308411 183.124115,181.833984 
	C183.553116,181.385590 183.736816,181.069870 184.155228,180.608124 
	C184.526581,179.623459 184.663239,178.784851 184.733032,177.440018 
	C184.171829,176.503098 183.677505,176.072388 183.318909,175.877045 
	C183.589233,176.116379 183.723801,176.120361 183.858368,176.124329 
	C183.569473,175.767365 183.280579,175.410400 183.057312,174.638641 
	C180.587051,164.110992 176.655884,154.267197 177.957184,143.461578 
	C178.468674,139.214188 178.694275,134.832092 178.258316,130.592743 
	C177.466263,122.891045 178.629898,116.319962 185.951050,112.101517 
	C186.778381,111.624802 187.362503,110.711784 188.030334,109.974747 
	C193.267334,104.195229 192.969513,93.155678 182.944427,89.673409 
	C182.197754,89.257622 181.594910,89.134315 180.824310,88.919014 
	C180.656525,88.827019 180.281036,88.901024 179.989746,88.560616 
	C173.271454,88.103874 166.844025,87.897957 160.417694,87.927719 
	C158.575333,87.936249 156.736145,88.626205 154.740479,89.093857 
	C154.689560,89.455139 154.793640,89.726288 154.975433,90.329315 
	C155.002228,91.109749 154.951309,91.558311 154.627625,92.318375 
	C154.511581,98.750610 154.668350,104.871323 154.890900,111.456398 
	C154.967621,116.556992 154.814575,121.202728 155.082214,125.824097 
	C155.170776,127.353256 156.343201,128.819641 157.155212,130.438522 
	C157.509552,130.347656 157.728760,130.132980 157.975494,129.951904 
	C158.003036,129.985504 157.927139,129.943359 158.231659,129.988205 
	C159.281006,130.683319 160.025833,131.333603 160.837067,132.317566 
	C160.867569,133.102386 160.831650,133.553528 160.659332,134.104004 
	C160.622742,134.468033 160.722519,134.732697 160.882599,135.330017 
	C160.901062,136.109390 160.859238,136.556122 160.675720,137.098602 
	C160.628067,137.461899 160.722092,137.729477 160.883636,138.345032 
	C161.031204,139.156296 161.111252,139.619553 161.099701,140.086975 
	C161.008087,140.091125 160.880264,139.959625 160.727509,140.058990 
	C160.520126,140.265823 160.391205,140.419846 160.424179,140.472488 
	C160.545319,140.665955 160.720184,140.825790 160.932602,141.258514 
	C160.917923,141.680984 160.845459,141.843246 160.584610,142.112244 
	C160.167175,142.417358 160.031738,142.666611 159.912186,143.265625 
	C159.144073,144.211212 158.453720,144.857925 157.506546,145.596588 
	C156.915939,145.825867 156.582184,145.963211 155.950272,146.219757 
	C155.495117,146.722580 155.338089,147.106186 155.283539,147.802734 
	C155.303696,148.978714 155.221390,149.841751 155.086060,150.896927 
	C155.011871,151.366516 155.084747,151.616531 155.339294,152.309082 
	C155.390808,160.571823 155.354706,168.364548 155.193085,176.395248 
	C155.330719,177.418320 155.593857,178.203430 155.983276,179.272705 
	C156.722260,180.100723 157.334961,180.644577 157.979874,181.402649 
	C158.144897,181.910263 158.371887,182.068848 158.753677,182.365875 
	C158.932602,182.989655 159.050919,183.340179 159.062988,184.090790 
	C155.975525,185.284363 152.994293,186.077896 149.588196,186.943481 
	C146.760269,187.308609 144.357208,187.601669 141.716431,187.920135 
	C141.478729,187.945557 141.020279,187.809784 140.970459,187.461731 
	C140.577332,185.999527 140.234024,184.885376 139.991241,183.511673 
	C140.677490,182.814484 141.263229,182.376846 142.119354,181.836121 
	C142.554291,181.398605 142.718857,181.064194 142.896881,180.523788 
	C142.910370,180.317810 143.159164,179.988388 143.434998,179.677902 
	C143.813751,171.631744 144.017517,163.895493 143.972961,156.160675 
	C143.953476,152.775635 143.426453,149.393524 143.055206,145.689911 
	C142.888199,144.289078 142.795868,143.208450 142.787354,141.662231 
	C142.790756,137.424728 142.710312,133.652832 142.733582,129.460815 
	C142.723892,126.745277 142.610519,124.449844 142.465515,121.986160 
	C142.433914,121.817909 142.160645,121.611603 142.426392,121.264542 
	C142.779114,118.311653 142.866104,115.705833 143.017334,112.628578 
	C143.091537,105.769913 143.204803,99.380379 143.062347,92.996544 
	C143.002625,90.320000 142.401108,87.655533 142.020111,84.988678 
	C141.994293,84.991768 142.023804,84.948936 141.970306,84.722153 
	C141.759674,84.201172 141.518066,84.018906 140.959427,83.871033 
	C140.726852,83.793495 140.243912,83.708679 140.243912,83.708679 
	C140.243912,83.708679 140.317368,83.790932 140.166931,83.480537 
	C139.350510,82.791969 138.684525,82.413788 138.018539,82.035614 
	C138.018539,82.035614 137.933823,81.684059 137.936356,81.079071 
	C138.009537,77.165077 140.271439,77.045265 142.763214,77.037781 
	C153.654190,77.005074 164.544983,76.910606 175.698593,76.749588 
	C176.306152,76.768364 176.650955,76.876106 177.276093,77.280426 
	C178.923935,77.620949 180.291458,77.664909 181.995056,77.639069 
	C183.223343,77.747864 184.115509,77.926453 185.250549,78.366791 
	C186.428314,78.711357 187.363205,78.794182 188.656967,78.875412 
	C191.958633,80.319817 194.901413,81.765800 197.844208,83.211792 
	C197.844208,83.211792 197.875717,83.115280 197.924622,83.387726 
	C198.301804,83.807503 198.630096,83.954842 198.958389,84.102180 
	C198.958389,84.102180 198.976318,84.020744 199.087479,84.351089 
	C204.132614,89.536995 206.315460,95.486198 205.044312,102.227043 
	C204.109283,107.185440 202.236359,111.966972 200.781387,116.827324 
	C200.781387,116.827324 200.894379,116.918037 200.619736,116.959450 
	C200.228195,117.332565 200.111282,117.664261 199.994370,117.995964 
	C199.994370,117.995964 200.000000,118.000000 199.718857,118.146912 
	C198.865143,119.168045 198.292572,120.042259 197.720001,120.916481 
	C197.416168,120.930840 197.184341,121.067429 196.697784,121.620468 
	C196.181549,122.237152 195.992050,122.559616 195.802536,122.882080 
	C195.802536,122.882080 195.934402,122.917519 195.578247,122.966202 
	C193.780273,124.270828 192.338486,125.526779 190.896698,126.782730 
	C190.377274,127.036087 189.857849,127.289429 188.905334,127.808716 
	C188.238510,128.329041 188.004791,128.583420 187.771072,128.837784 
	C187.771072,128.837784 187.879440,128.879471 187.520584,128.885406 
	C186.655304,129.790070 185.533661,130.869629 185.736557,131.559830 
	C188.045441,139.414169 190.556564,147.209045 193.013641,155.019806 
z"/>
<path fill="#FBF4F3" opacity="1.000000" stroke="none" 
	d="
M71.024132,188.150513 
	C70.304283,188.088196 69.584442,188.025879 68.361694,187.656982 
	C67.244438,187.276550 66.630074,187.202698 66.015717,187.128860 
	C66.015717,187.128860 65.617256,186.952835 65.298325,186.676056 
	C64.705116,186.149841 64.430840,185.900391 64.156555,185.650955 
	C64.156555,185.650955 64.259842,185.293564 64.247513,184.891876 
	C64.162773,184.334961 64.090370,184.179718 64.017975,184.024475 
	C64.069138,183.857056 64.120300,183.689636 64.317322,183.169327 
	C64.641167,182.604065 64.714470,182.360153 64.683090,182.084717 
	C64.683090,182.084717 65.051582,181.844193 65.450012,181.462921 
	C67.006760,178.535767 69.153137,175.997025 69.171669,173.442856 
	C69.373215,145.662842 69.269745,117.880264 69.136238,90.098930 
	C69.127365,88.253197 68.199516,86.411880 67.699112,84.568504 
	C67.699104,84.568504 67.577286,84.389549 67.432114,84.196083 
	C67.177101,83.845963 67.035187,83.727829 66.861206,83.648216 
	C66.861206,83.648216 66.762291,83.387001 66.558594,83.049873 
	C65.937431,82.422409 65.519966,82.132072 65.102509,81.841736 
	C65.084641,81.470619 64.907784,81.205589 64.194916,80.655319 
	C62.342518,75.538551 66.294304,76.803322 68.161087,76.759186 
	C80.758141,76.461357 93.362953,76.509987 105.962181,76.278793 
	C114.985687,76.113205 123.389046,77.915977 130.870239,83.183098 
	C130.870239,83.183098 130.945465,83.061432 131.037018,83.408890 
	C137.743164,89.639175 137.527405,96.933075 135.457108,104.630562 
	C135.476654,104.646980 135.435410,104.670769 135.206268,104.900551 
	C131.848862,109.263382 128.720612,113.396431 125.657303,117.631058 
	C125.722267,117.732635 125.539078,117.575813 125.266724,117.701447 
	C124.302223,118.533997 123.610077,119.240906 122.953232,119.971069 
	C122.988548,119.994331 122.950287,119.918915 122.633377,120.008797 
	C120.811302,121.343918 119.306145,122.589157 117.862572,123.876503 
	C117.924156,123.918610 117.850731,123.788734 117.570938,123.840973 
	C116.720222,124.377350 116.149300,124.861481 115.522507,125.394386 
	C115.466637,125.443153 115.333534,125.508614 115.048653,125.626930 
	C113.461807,126.793648 112.159843,127.842049 110.906792,128.927338 
	C110.955696,128.964233 110.903854,128.853210 110.579132,128.908127 
	C108.827766,129.951355 107.401131,130.939667 105.626190,131.816742 
	C105.127136,128.803848 104.976387,125.902168 104.901222,122.750076 
	C104.918015,122.335495 104.859222,122.171326 104.875687,121.584030 
	C104.941261,119.445465 104.931580,117.730019 105.164307,115.779282 
	C110.234261,111.539032 115.465935,107.921394 119.777847,103.422249 
	C124.257912,98.747681 122.937279,93.267334 117.083191,89.514038 
	C107.031334,88.890793 97.282448,88.554268 87.532326,88.257645 
	C87.330887,88.251518 87.115372,88.707939 86.549629,88.959091 
	C85.481438,88.935776 84.770035,88.901947 83.856163,88.544998 
	C82.847542,88.947006 81.348206,89.663002 81.338509,90.398636 
	C81.174934,102.801460 81.128181,115.207253 81.224121,127.611084 
	C81.249283,130.863983 82.974121,130.752167 85.469772,128.836121 
	C88.202332,133.259979 87.669479,142.837814 84.724739,145.978577 
	C84.143509,146.142334 83.931870,146.373474 83.489555,146.854462 
	C82.572212,148.266174 81.547462,149.543930 81.536446,150.830338 
	C81.461632,159.567017 81.546005,168.306671 81.727295,177.042282 
	C81.755653,178.408722 82.538979,179.759491 83.040131,181.454102 
	C85.395691,185.845840 84.766243,187.217346 80.262444,187.628204 
	C77.192673,187.908234 74.104225,187.983612 71.024132,188.150513 
z"/>
<path fill="#FAF2F0" opacity="1.000000" stroke="none" 
	d="
M89.137634,72.769485 
	C89.053726,65.837631 88.815002,58.902771 88.949089,51.975132 
	C89.019630,48.330280 87.938377,45.809452 84.886566,43.604179 
	C83.487221,42.592995 83.233879,39.995895 83.139999,37.866760 
	C87.644577,37.536163 91.487480,37.194229 95.290726,37.447636 
	C99.510506,37.728798 103.694069,38.553471 107.893402,39.141487 
	C107.893402,39.141487 107.953011,39.043865 107.915817,39.452255 
	C107.878723,40.881596 107.878807,41.902546 107.878891,42.923496 
	C107.878891,42.923496 107.974785,42.986931 107.681976,43.067978 
	C107.117470,43.654114 106.845764,44.159203 106.574051,44.664291 
	C106.574051,44.664291 106.962013,44.803120 106.517822,44.823723 
	C105.582649,45.392303 105.091660,45.940285 104.600677,46.488262 
	C104.600677,46.488262 104.588020,46.578789 104.216431,46.711296 
	C103.061745,49.395439 101.728668,51.920937 101.605865,54.503967 
	C101.317818,60.562805 101.609039,66.649178 101.665787,72.724411 
	C101.665787,72.724411 101.868820,72.863747 101.351685,72.836975 
	C96.935585,72.796638 93.036606,72.783058 89.137634,72.769485 
z"/>
<path fill="#FCF4F3" opacity="1.000000" stroke="none" 
	d="
M163.142212,72.677780 
	C162.793945,67.656570 162.232132,62.638638 162.155167,57.613274 
	C162.071655,52.162682 162.599197,46.701580 157.415131,42.874695 
	C156.644302,42.305676 156.547882,40.823116 156.397171,39.150246 
	C164.204041,38.314354 171.769287,37.732300 179.293335,38.069466 
	C181.817719,38.182594 181.878860,41.144283 180.308853,43.224972 
	C178.836288,45.176563 177.217255,47.017632 175.662674,48.907333 
	C175.450638,49.412544 175.238586,49.917751 174.979965,51.166550 
	C174.933380,58.632980 174.933380,65.355820 174.933380,72.677780 
	C170.692841,72.677780 166.917526,72.677780 163.142212,72.677780 
z"/>
<path fill="#8C1D1F" opacity="1.000000" stroke="none" 
	d="
M89.041664,73.157837 
	C93.036606,72.783058 96.935585,72.796638 101.271286,72.743736 
	C103.454948,73.451210 105.132477,74.545563 106.961250,74.941765 
	C113.667206,76.394600 120.459785,77.462112 127.131943,79.044868 
	C128.571716,79.386406 129.645767,81.269562 130.879257,82.812851 
	C123.389046,77.915977 114.985687,76.113205 105.962181,76.278793 
	C93.362953,76.509987 80.758141,76.461357 68.161087,76.759186 
	C66.294304,76.803322 62.342518,75.538551 63.950523,80.605240 
	C63.082939,80.213478 62.082718,79.480469 61.082493,78.747452 
	C62.240395,77.527061 63.242516,75.514786 64.588417,75.250031 
	C67.450272,74.687035 70.490829,75.019257 73.458214,75.008934 
	C77.686440,74.994225 81.917892,75.087761 86.140579,74.933197 
	C87.091270,74.898392 88.011467,74.030548 89.041664,73.157837 
z"/>
<path fill="#8C1D1F" opacity="1.000000" stroke="none" 
	d="
M163.267273,72.991150 
	C166.917526,72.677780 170.692841,72.677780 174.933380,72.677780 
	C174.933380,65.355820 174.933380,58.632980 175.038361,51.449890 
	C175.144821,58.979588 180.010925,67.396667 173.756454,74.596436 
	C179.525253,75.671638 186.006180,76.606148 192.316727,78.210754 
	C194.398666,78.740128 196.040588,81.000069 197.863953,82.840256 
	C194.901413,81.765800 191.958633,80.319817 188.388168,78.648300 
	C186.842896,78.316864 185.925293,78.210953 185.007690,78.105042 
	C184.115509,77.926453 183.223343,77.747864 181.663025,77.402977 
	C179.661835,77.152405 178.328812,77.068130 176.995773,76.983856 
	C176.650955,76.876106 176.306152,76.768364 175.301041,76.544632 
	C162.151505,76.407082 149.662262,76.385521 137.173019,76.363960 
	C138.785919,75.908043 140.392456,75.086273 142.012772,75.058189 
	C149.916016,74.921188 157.822922,74.996201 166.728912,74.996201 
	C165.068939,74.154579 164.230637,73.729553 163.267273,72.991150 
z"/>
<path fill="#8C1D1F" opacity="1.000000" stroke="none" 
	d="
M67.521957,84.982361 
	C68.199516,86.411880 69.127365,88.253197 69.136238,90.098930 
	C69.269745,117.880264 69.373215,145.662842 69.171669,173.442856 
	C69.153137,175.997025 67.006760,178.535767 65.509064,181.250977 
	C69.577705,174.135910 67.902740,166.072235 67.958176,158.291245 
	C68.111328,136.796555 68.035683,115.299980 67.982094,93.804329 
	C67.975105,91.001106 67.567070,88.198891 67.521957,84.982361 
z"/>
<path fill="#940E0F" opacity="1.000000" stroke="none" 
	d="
M181.179169,187.029907 
	C187.205704,186.647995 193.181625,186.795380 199.128326,186.445648 
	C200.762314,186.349548 202.308899,184.766983 203.824127,183.477722 
	C208.410828,183.122116 206.734848,185.322830 205.123993,187.729401 
	C205.000000,188.000000 204.999390,188.000610 204.635254,188.004242 
	C203.179764,189.004227 202.088409,190.000595 200.997055,190.996948 
	C198.643753,190.472244 196.290466,189.947540 193.362823,189.294785 
	C192.072144,191.741470 190.109756,192.060211 188.049240,188.074417 
	C186.305145,189.277634 184.632553,190.431503 182.694595,191.768463 
	C182.150543,190.251709 181.634033,188.811737 181.179169,187.029907 
z"/>
<path fill="#8C1D1F" opacity="1.000000" stroke="none" 
	d="
M201.161438,116.849091 
	C202.236359,111.966972 204.109283,107.185440 205.044312,102.227043 
	C206.315460,95.486198 204.132614,89.536995 199.051300,84.371796 
	C203.598969,85.480080 208.770370,93.838448 207.823730,99.452652 
	C206.982422,104.442322 205.441452,109.326691 203.982285,114.189423 
	C203.669037,115.233368 202.380676,115.984726 201.161438,116.849091 
z"/>
<path fill="#8C1D1F" opacity="1.000000" stroke="none" 
	d="
M176.040405,48.912258 
	C177.217255,47.017632 178.836288,45.176563 180.308853,43.224972 
	C181.878860,41.144283 181.817719,38.182594 179.293335,38.069466 
	C171.769287,37.732300 164.204041,38.314354 156.362473,38.793640 
	C156.551712,38.011787 156.889709,36.191383 157.540085,36.071938 
	C160.234787,35.577049 163.023163,35.475086 165.778488,35.458843 
	C168.894867,35.440468 172.056488,35.391644 175.116211,35.875763 
	C177.629578,36.273434 181.272842,36.778793 182.133835,38.427704 
	C183.083527,40.246471 181.844070,43.617722 180.755936,45.936211 
	C180.112778,47.306625 177.916168,47.947979 176.040405,48.912258 
z"/>
<path fill="#8C1D1F" opacity="1.000000" stroke="none" 
	d="
M102.087929,72.745407 
	C101.609039,66.649178 101.317818,60.562805 101.605865,54.503967 
	C101.728668,51.920937 103.061745,49.395439 104.170731,46.711601 
	C104.330391,53.917122 104.236275,61.257801 103.935028,68.589966 
	C103.877129,69.999245 103.006020,71.375122 102.087929,72.745407 
z"/>
<path fill="#8C1D1F" opacity="1.000000" stroke="none" 
	d="
M193.278687,154.784637 
	C190.556564,147.209045 188.045441,139.414169 185.736557,131.559830 
	C185.533661,130.869629 186.655304,129.790070 187.497559,128.832123 
	C189.594116,136.274689 191.367538,143.773544 193.101288,151.281586 
	C193.347565,152.348068 193.401062,153.459076 193.278687,154.784637 
z"/>
<path fill="#FDE1DE" opacity="1.000000" stroke="none" 
	d="
M136.974243,76.644211 
	C149.662262,76.385521 162.151505,76.407082 175.038300,76.633598 
	C164.544983,76.910606 153.654190,77.005074 142.763214,77.037781 
	C140.271439,77.045265 138.009537,77.165077 137.901855,80.901588 
	C137.525192,81.211288 137.185577,81.093498 136.506104,80.674133 
	C136.166229,80.372559 135.809845,80.034508 135.809845,80.034508 
	C136.131714,78.997826 136.453598,77.961136 136.974243,76.644211 
z"/>
<path fill="#8C1D1F" opacity="1.000000" stroke="none" 
	d="
M135.437561,104.614143 
	C137.527405,96.933075 137.743164,89.639175 130.977203,83.448120 
	C132.775955,84.219986 134.726074,85.300079 136.853256,86.985397 
	C137.347229,88.064232 137.664124,88.537849 137.985535,89.344559 
	C137.997330,90.121750 138.004593,90.565857 138.008133,91.473450 
	C138.001312,96.289581 137.998215,100.642212 137.563934,104.967651 
	C136.567688,104.831688 136.002625,104.722916 135.437561,104.614143 
z"/>
<path fill="#950708" opacity="1.000000" stroke="none" 
	d="
M138.011856,91.009956 
	C138.004593,90.565857 137.997330,90.121750 138.223892,89.245026 
	C138.638840,88.206757 138.819977,87.601120 139.001099,86.995476 
	C139.001099,86.995476 139.000549,86.505104 139.220795,86.149796 
	C139.714325,85.594963 139.898010,85.332687 139.992081,85.007645 
	C140.019516,84.788750 140.046951,84.569847 140.159149,84.029816 
	C140.243912,83.708679 140.726852,83.793495 141.002045,84.103806 
	C141.437424,84.716156 141.686279,84.894432 142.023804,84.948936 
	C142.023804,84.948936 141.994293,84.991768 142.055359,85.455063 
	C142.140274,90.612259 142.164108,95.306175 141.786224,99.994118 
	C137.645676,99.198563 138.737900,97.060043 140.055420,94.982788 
	C141.689301,92.406761 141.230042,91.029984 138.011856,91.009956 
z"/>
<path fill="#8C1D1F" opacity="1.000000" stroke="none" 
	d="
M107.888260,38.737019 
	C103.694069,38.553471 99.510506,37.728798 95.290726,37.447636 
	C91.487480,37.194229 87.644577,37.536163 83.409531,37.586578 
	C83.738060,37.044197 84.468269,36.098858 85.215614,36.085110 
	C91.663033,35.966473 98.117226,35.905022 104.559662,36.119217 
	C105.690750,36.156822 106.776451,37.560017 107.888260,38.737019 
z"/>
<path fill="#8C1D1F" opacity="1.000000" stroke="none" 
	d="
M191.083893,127.062141 
	C192.338486,125.526779 193.780273,124.270828 195.529007,122.918900 
	C196.311508,126.346748 194.468704,127.528488 191.083893,127.062141 
z"/>
<path fill="#8C1D1F" opacity="1.000000" stroke="none" 
	d="
M108.239761,42.897087 
	C107.878807,41.902546 107.878723,40.881596 107.864075,39.476616 
	C110.902550,39.794765 110.716125,41.140965 108.239761,42.897087 
z"/>
<path fill="#A00A10" opacity="1.000000" stroke="none" 
	d="
M138.665588,86.996307 
	C138.819977,87.601120 138.638840,88.206757 138.219360,88.911926 
	C137.664124,88.537849 137.347229,88.064232 137.008926,87.291641 
	C137.435028,86.994156 137.882553,86.995644 138.665588,86.996307 
z"/>
<path fill="#8C1D1F" opacity="1.000000" stroke="none" 
	d="
M198.088959,120.904694 
	C198.292572,120.042259 198.865143,119.168045 199.716309,118.144478 
	C199.482559,118.961052 198.970230,119.926971 198.088959,120.904694 
z"/>
<path fill="#8C1D1F" opacity="1.000000" stroke="none" 
	d="
M104.964279,46.604755 
	C105.091660,45.940285 105.582649,45.392303 106.331421,44.735943 
	C106.168762,45.325459 105.748322,46.023354 104.964279,46.604755 
z"/>
<path fill="#8C1D1F" opacity="1.000000" stroke="none" 
	d="
M138.066467,82.373581 
	C138.684525,82.413788 139.350510,82.791969 140.159576,83.425888 
	C139.573227,83.358269 138.843811,83.034912 138.066467,82.373581 
z"/>
<path fill="#8C1D1F" opacity="1.000000" stroke="none" 
	d="
M106.902695,44.638260 
	C106.845764,44.159203 107.117470,43.654114 107.650360,43.019966 
	C107.684807,43.464684 107.458061,44.038456 106.902695,44.638260 
z"/>
<path fill="#940E0F" opacity="1.000000" stroke="none" 
	d="
M205.901917,188.779297 
	C205.906982,189.320404 205.716919,189.581726 205.221512,189.557251 
	C204.999741,188.888443 204.999557,188.444534 204.999390,188.000610 
	C204.999390,188.000610 205.000000,188.000000 205.000305,187.999695 
	C205.325302,188.099960 205.588608,188.286972 205.901917,188.779297 
z"/>
<path fill="#8C1D1F" opacity="1.000000" stroke="none" 
	d="
M65.109253,82.179855 
	C65.519966,82.132072 65.937431,82.422409 66.459190,82.951775 
	C66.080986,82.966522 65.598488,82.742249 65.109253,82.179855 
z"/>
<path fill="#A00A10" opacity="1.000000" stroke="none" 
	d="
M139.773163,85.115646 
	C139.898010,85.332687 139.714325,85.594963 139.223373,85.904617 
	C139.098251,85.688416 139.281097,85.424706 139.773163,85.115646 
z"/>
<path fill="#8C1D1F" opacity="1.000000" stroke="none" 
	d="
M200.231644,117.873375 
	C200.111282,117.664261 200.228195,117.332565 200.592163,116.892456 
	C200.715790,117.106293 200.592361,117.428535 200.231644,117.873375 
z"/>
<path fill="#8C1D1F" opacity="1.000000" stroke="none" 
	d="
M196.081970,122.798141 
	C195.992050,122.559616 196.181549,122.237152 196.646164,121.822678 
	C196.734650,122.058510 196.548019,122.386353 196.081970,122.798141 
z"/>
<path fill="#8C1D1F" opacity="1.000000" stroke="none" 
	d="
M188.035080,128.808868 
	C188.004791,128.583420 188.238510,128.329041 188.741608,128.052338 
	C188.773682,128.279984 188.536377,128.529968 188.035080,128.808868 
z"/>
<path fill="#8C1D1F" opacity="1.000000" stroke="none" 
	d="
M135.681488,80.175217 
	C135.809845,80.034508 136.166229,80.372559 136.242615,80.605469 
	C136.063705,80.664230 135.808411,80.490082 135.681488,80.175217 
z"/>
<path fill="#8C1D1F" opacity="1.000000" stroke="none" 
	d="
M198.851471,83.848068 
	C198.630096,83.954842 198.301804,83.807503 197.875244,83.399574 
	C198.099503,83.290649 198.422028,83.442307 198.851471,83.848068 
z"/>
<path fill="#8C1D1F" opacity="1.000000" stroke="none" 
	d="
M66.714767,83.870300 
	C67.035187,83.727829 67.177101,83.845963 67.348557,84.127296 
	C67.129547,84.198776 66.848938,84.145576 66.714767,83.870300 
z"/>
<path fill="#940E0F" opacity="1.000000" stroke="none" 
	d="
M202.816849,182.050659 
	C202.534225,182.098785 202.184372,181.860046 201.871506,181.296158 
	C202.188858,181.235291 202.469238,181.499557 202.816849,182.050659 
z"/>
<path fill="#8C1D1F" opacity="1.000000" stroke="none" 
	d="
M64.523666,182.191223 
	C64.714470,182.360153 64.641167,182.604065 64.293381,182.907822 
	C64.096703,182.728622 64.176926,182.494797 64.523666,182.191223 
z"/>
<path fill="#920F11" opacity="1.000000" stroke="none" 
	d="
M63.764526,184.016602 
	C64.090370,184.179718 64.162773,184.334961 64.151352,184.732666 
	C63.790421,184.799469 63.513329,184.623810 63.120090,184.226562 
	C63.172989,184.006210 63.342033,184.007462 63.764526,184.016602 
z"/>
<path fill="#FCF7F6" opacity="1.000000" stroke="none" 
	d="
M84.947266,220.535507 
	C84.673721,219.559265 84.400177,218.583008 84.261230,217.193390 
	C84.395821,216.780014 84.389862,216.436554 84.389862,216.436554 
	C84.389862,216.436554 84.369453,216.361389 84.676224,216.169662 
	C86.052155,214.372253 87.121315,212.766571 88.190475,211.160873 
	C88.190468,211.160873 88.124367,211.021988 88.488403,210.899185 
	C89.129204,208.943268 89.405983,207.110138 89.829063,204.883606 
	C89.867569,200.955063 89.759781,197.419922 89.665863,193.540100 
	C89.643845,192.506668 89.607956,191.817902 89.733139,190.701813 
	C89.786430,188.469345 89.678650,186.664200 89.608231,184.573166 
	C89.627815,183.903824 89.610039,183.520370 89.739929,182.679443 
	C89.656342,173.756104 89.425079,165.290268 89.204308,156.376892 
	C89.135185,152.596268 89.055573,149.263168 89.091003,145.479004 
	C89.120415,139.684967 89.034790,134.341995 89.009872,128.533218 
	C89.018730,116.390137 88.966858,104.712875 89.020348,92.855400 
	C89.125710,92.675186 89.109177,92.258011 89.557922,92.185600 
	C93.939049,92.136520 97.871437,92.159851 101.827110,92.638329 
	C101.942299,109.867577 102.006874,126.641899 102.149544,143.415573 
	C102.177498,146.702347 102.507736,149.986526 102.670166,153.676041 
	C102.676498,155.970612 102.711220,157.861053 102.595093,159.903473 
	C102.557129,160.429550 102.670006,160.803650 102.757690,161.634583 
	C102.732498,177.488937 102.732498,192.886459 102.732498,208.548828 
	C113.358086,208.548828 123.129211,208.548828 133.202881,208.663010 
	C133.704117,208.693527 133.902786,208.609879 134.501831,208.566620 
	C136.240402,208.565308 137.578583,208.523590 139.192291,208.621460 
	C139.920151,208.472321 140.372513,208.183563 140.997498,207.631378 
	C141.621460,206.952576 142.072830,206.537231 142.760742,205.848251 
	C143.299042,203.045059 143.600800,200.515503 143.953461,197.982925 
	C144.004379,197.979919 143.977173,197.881592 144.272583,197.810394 
	C145.348953,197.537537 146.129898,197.335876 146.955673,197.071930 
	C147.000488,197.009644 146.882843,197.107513 146.918793,197.389160 
	C147.219879,198.139236 147.485001,198.607651 147.816391,199.441879 
	C149.967316,205.162964 152.188492,210.471527 154.046799,215.904221 
	C154.551727,217.380386 153.962051,219.230988 153.874756,220.909729 
	C153.874756,220.909729 153.959534,220.930878 153.492035,220.920090 
	C134.460205,220.953629 115.895828,221.029526 97.331512,221.017868 
	C93.203331,221.015274 89.075340,220.704422 84.947266,220.535507 
z"/>
<path fill="#940E0F" opacity="1.000000" stroke="none" 
	d="
M183.088257,89.965881 
	C192.969513,93.155678 193.267334,104.195229 188.030334,109.974747 
	C187.362503,110.711784 186.778381,111.624802 185.951050,112.101517 
	C178.629898,116.319962 177.466263,122.891045 178.258316,130.592743 
	C178.694275,134.832092 178.468674,139.214188 177.957184,143.461578 
	C176.655884,154.267197 180.587051,164.110992 183.040176,174.754593 
	C182.957413,175.285355 183.183167,175.641678 183.183167,175.641678 
	C183.677505,176.072388 184.171829,176.503098 184.418335,177.404266 
	C183.299484,177.874710 182.428482,177.874710 180.774002,177.874710 
	C182.350906,179.317764 183.135727,180.035965 183.920532,180.754150 
	C183.736816,181.069870 183.553116,181.385590 182.909180,181.906830 
	C182.173325,182.280457 182.004349,182.522903 181.941986,182.839661 
	C181.941986,182.839661 181.957870,182.938629 181.686707,182.944489 
	C181.254913,183.294006 181.094254,183.637665 180.933609,183.981339 
	C180.999344,184.686401 181.065079,185.391464 181.233032,186.441574 
	C180.225693,187.295135 179.116165,187.803635 177.789536,188.655151 
	C177.572449,188.998154 177.151428,188.989410 177.107330,188.523315 
	C177.017181,165.267136 176.990494,142.476944 176.882751,119.687141 
	C176.875366,118.124420 176.261612,116.564568 175.861877,114.538651 
	C175.793930,106.586006 175.793930,99.098106 175.793930,91.555862 
	C173.199234,91.284660 171.586960,91.116142 169.793793,90.705536 
	C168.748550,90.623199 167.884186,90.782936 166.683960,91.032303 
	C165.891373,91.065025 165.434677,91.008125 165.080582,90.560303 
	C170.215805,89.746597 175.248413,89.323814 180.281036,88.901031 
	C180.281036,88.901024 180.656525,88.827019 181.002243,89.169365 
	C181.928055,89.663101 182.508163,89.814491 183.088257,89.965881 
z"/>
<path fill="#920F11" opacity="1.000000" stroke="none" 
	d="
M89.682755,205.277023 
	C89.405983,207.110138 89.129204,208.943268 88.497070,210.975601 
	C87.646133,203.888809 87.150551,196.602798 86.673279,189.585938 
	C80.647537,188.232315 75.782349,193.918243 71.252083,188.415863 
	C74.104225,187.983612 77.192673,187.908234 80.262444,187.628204 
	C84.766243,187.217346 85.395691,185.845840 83.057724,180.976837 
	C83.005966,172.000854 82.934952,163.837784 83.045959,155.677185 
	C83.076393,153.439697 83.652023,151.209610 84.266495,148.851562 
	C85.383308,147.790131 86.211098,146.853241 87.278473,145.896149 
	C87.518066,145.875931 87.996658,145.922897 87.997009,146.399384 
	C87.711632,159.321167 87.388191,171.765945 87.217056,184.212799 
	C87.204376,185.134903 88.286545,186.072052 88.901367,187.358337 
	C89.152687,188.852676 89.362373,189.990906 89.572067,191.129135 
	C89.607956,191.817902 89.643845,192.506668 89.442444,193.890884 
	C89.364357,198.149902 89.523560,201.713455 89.682755,205.277023 
z"/>
<path fill="#931114" opacity="1.000000" stroke="none" 
	d="
M177.151428,188.989410 
	C177.151428,188.989410 177.572449,188.998154 177.782867,189.002625 
	C177.997314,194.143860 177.730591,199.302307 178.139297,204.406647 
	C178.301620,206.434021 179.452728,209.189026 181.037430,210.139847 
	C185.280609,212.685776 185.463959,216.575119 183.608444,219.634903 
	C182.492798,221.474625 178.507385,221.886124 175.715103,222.324509 
	C171.434311,222.996613 167.064621,223.448013 162.744095,223.368988 
	C160.724930,223.332062 158.732468,221.834488 156.358063,220.583786 
	C155.999298,219.107956 156.010376,218.047302 156.400314,216.992264 
	C157.537292,217.022995 158.295410,217.048080 159.119843,217.448105 
	C160.795029,218.872269 162.333664,220.666458 164.026413,220.826035 
	C168.465881,221.244583 172.978058,221.072937 177.449341,220.871628 
	C178.952087,220.803970 181.346970,220.277939 181.683823,219.357468 
	C182.184280,217.989975 181.488403,215.965485 180.813049,214.436478 
	C179.707275,211.933029 178.208557,209.603165 176.960190,206.724792 
	C177.080353,200.496140 177.115891,194.742783 177.151428,188.989410 
z"/>
<path fill="#8E1B1F" opacity="1.000000" stroke="none" 
	d="
M85.172150,220.920288 
	C89.075340,220.704422 93.203331,221.015274 97.331512,221.017868 
	C115.895828,221.029526 134.460205,220.953629 153.490387,220.876434 
	C152.773682,221.231964 151.592255,221.954971 150.408386,221.959030 
	C129.676010,222.030121 108.943321,222.022537 88.210777,221.985367 
	C87.272461,221.983688 86.334930,221.541901 85.172150,220.920288 
z"/>
<path fill="#8E1B1F" opacity="1.000000" stroke="none" 
	d="
M156.021423,216.986633 
	C156.010376,218.047302 155.999298,219.107956 155.976776,220.564819 
	C155.500427,220.964233 155.035538,220.967438 154.222687,220.940186 
	C153.962051,219.230988 154.551727,217.380386 154.046799,215.904221 
	C152.188492,210.471527 149.967316,205.162964 148.161469,199.453278 
	C149.287689,200.068817 150.135101,201.038757 151.029358,202.373657 
	C152.724609,207.487946 154.373016,212.237289 156.021423,216.986633 
z"/>
<path fill="#9B0D12" opacity="1.000000" stroke="none" 
	d="
M204.635239,188.004242 
	C204.999557,188.444534 204.999741,188.888443 205.001129,189.665268 
	C203.960556,191.261902 203.224823,193.294312 200.999374,191.294037 
	C202.088409,190.000595 203.179764,189.004227 204.635239,188.004242 
z"/>
<path fill="#8E1B1F" opacity="1.000000" stroke="none" 
	d="
M87.779617,211.119385 
	C87.121315,212.766571 86.052155,214.372253 84.714172,216.160919 
	C84.086311,214.928955 83.727280,213.514008 83.202148,211.444443 
	C84.717453,211.311142 86.043106,211.194534 87.779617,211.119385 
z"/>
<path fill="#920F11" opacity="1.000000" stroke="none" 
	d="
M70.999390,226.999390 
	C71.420265,225.140472 71.841759,223.282166 72.307152,221.230316 
	C78.360970,224.501633 71.542526,224.823395 71.280441,226.799561 
	C71.001076,227.000702 71.000000,227.000000 70.999390,226.999390 
z"/>
<path fill="#920F11" opacity="1.000000" stroke="none" 
	d="
M71.450668,219.099640 
	C71.054436,217.749054 70.978554,216.538239 70.902679,215.327408 
	C71.363640,215.366394 71.824600,215.405380 72.285561,215.444366 
	C72.114052,216.709381 71.942535,217.974380 71.450668,219.099640 
z"/>
<path fill="#9B0D12" opacity="1.000000" stroke="none" 
	d="
M62.796440,188.740387 
	C62.548046,189.929626 62.093857,190.856201 61.639668,191.782776 
	C61.094193,190.780289 60.548717,189.777802 60.002075,188.387665 
	C60.864159,188.159241 61.727402,188.318466 62.796440,188.740387 
z"/>
<path fill="#920F11" opacity="1.000000" stroke="none" 
	d="
M66.212128,187.356094 
	C66.630074,187.202698 67.244438,187.276550 67.999222,187.645111 
	C67.562614,187.820999 66.985573,187.702164 66.212128,187.356094 
z"/>
<path fill="#8E1B1F" opacity="1.000000" stroke="none" 
	d="
M84.202972,216.370392 
	C84.389862,216.436554 84.395821,216.780014 84.256317,216.879761 
	C83.961906,216.798553 83.807014,216.617615 83.652122,216.436646 
	C83.773438,216.392517 83.894753,216.348373 84.202972,216.370392 
z"/>
<path fill="#920F11" opacity="1.000000" stroke="none" 
	d="
M64.220612,185.937683 
	C64.430840,185.900391 64.705116,186.149841 65.080673,186.668030 
	C64.882843,186.699310 64.583748,186.461853 64.220612,185.937683 
z"/>
<path fill="#9D0F12" opacity="1.000000" stroke="none" 
	d="
M135.457108,104.630562 
	C136.002625,104.722916 136.567688,104.831688 137.862122,104.989471 
	C139.060989,105.357468 139.530502,105.676445 140.000122,106.402740 
	C140.749298,108.211845 141.498352,109.613632 142.379120,111.278107 
	C142.427948,111.913925 142.345062,112.287056 141.865829,112.818466 
	C139.381592,116.308121 138.244217,119.533051 142.497131,122.154411 
	C142.610519,124.449844 142.723892,126.745277 142.327011,129.583771 
	C137.447357,133.307220 137.708252,136.837875 142.703522,142.127808 
	C142.795868,143.208450 142.888199,144.289078 142.961746,146.149551 
	C143.015030,157.949051 143.087097,168.968719 143.159180,179.988388 
	C143.159164,179.988388 142.910370,180.317810 142.640045,180.640961 
	C142.196136,181.289124 142.022537,181.614166 141.848953,181.939209 
	C141.263229,182.376846 140.677490,182.814484 139.757568,183.555725 
	C139.423401,183.859314 138.975754,184.020203 138.614700,184.018890 
	C137.102264,183.714767 135.950897,183.411942 134.863113,183.084808 
	C134.926712,183.060471 134.838364,183.164108 134.868622,182.833832 
	C134.471848,182.098450 134.044800,181.693359 133.719894,181.192108 
	C133.822037,181.095932 133.662979,181.327072 133.666443,181.043320 
	C133.388779,180.529343 133.107620,180.299133 132.616745,179.939178 
	C132.207214,179.366608 132.007416,178.923782 131.855240,178.069489 
	C131.304214,173.802017 130.744904,169.917816 125.878586,169.122116 
	C125.940338,169.080490 125.823624,169.154099 125.882095,168.780197 
	C125.134438,167.440491 124.328308,166.474686 123.517395,165.457611 
	C123.512611,165.406326 123.426865,165.349258 123.569870,165.011810 
	C123.019737,163.877350 122.326591,163.080307 121.751839,162.122314 
	C121.870232,161.961334 121.647346,162.288925 121.745071,161.911560 
	C121.155067,160.747482 120.467339,159.960800 119.866257,159.094482 
	C119.952904,159.014862 119.805374,159.198196 119.837173,158.866211 
	C119.436913,158.157532 119.004868,157.780853 118.621140,157.347931 
	C118.669456,157.291718 118.527428,157.334259 118.574135,157.058197 
	C118.334755,156.578918 118.048676,156.375702 117.859879,156.082031 
	C117.957161,155.991577 117.780533,156.189651 117.850883,155.775330 
	C117.098724,154.501877 116.276215,153.642761 115.390152,152.691467 
	C115.326607,152.599289 115.254959,152.387131 115.441406,152.050140 
	C112.714241,147.501984 109.800636,143.290817 106.939392,139.059906 
	C106.991745,139.040131 106.913567,139.120239 106.916946,138.812714 
	C106.522392,138.164154 106.124458,137.823105 105.726517,137.482056 
	C105.509697,137.996780 105.292870,138.511505 105.087006,139.288879 
	C105.035767,139.715378 104.973557,139.879227 104.656128,139.757721 
	C104.917458,137.306473 105.434013,135.140564 106.174942,133.233490 
	C109.719490,133.711868 111.534897,132.470276 110.903854,128.853210 
	C110.903854,128.853210 110.955696,128.964233 111.316032,128.967377 
	C113.926811,128.906113 116.415222,129.093094 115.333534,125.508614 
	C115.333534,125.508614 115.466637,125.443153 115.861710,125.555984 
	C116.788101,125.042122 117.319420,124.415428 117.850731,123.788734 
	C117.850731,123.788734 117.924156,123.918610 118.290390,123.931595 
	C121.803291,124.432343 123.530884,123.406555 122.950287,119.918915 
	C122.950287,119.918915 122.988548,119.994331 123.338898,119.983871 
	C124.305855,119.174217 124.922470,118.375015 125.539078,117.575813 
	C125.539078,117.575813 125.722267,117.732635 126.023262,117.747711 
	C132.963928,114.938530 135.871002,110.761299 135.435410,104.670769 
	C135.435410,104.670769 135.476654,104.646980 135.457108,104.630562 
M112.851830,135.508255 
	C112.428574,135.205841 112.005325,134.903427 111.582085,134.600998 
	C111.470535,135.047821 111.358986,135.494629 111.247429,135.941452 
	C111.742249,135.995193 112.237061,136.048935 112.851830,135.508255 
z"/>
<path fill="#9B0D10" opacity="1.000000" stroke="none" 
	d="
M141.020279,187.809784 
	C141.020279,187.809784 141.478729,187.945557 141.867645,188.229065 
	C143.361267,188.659058 144.462448,188.885117 145.571442,188.934036 
	C147.380722,189.013809 149.195099,188.978027 151.004700,189.387726 
	C151.670761,191.188156 152.339447,192.591843 153.326584,194.020493 
	C154.429977,194.363403 155.214905,194.681351 155.928406,195.368347 
	C154.237656,196.158249 152.618347,196.579117 150.795746,196.741150 
	C149.355911,196.690720 148.119385,196.899109 146.882843,197.107513 
	C146.882843,197.107513 147.000488,197.009644 147.008698,196.725311 
	C147.838852,195.070160 148.660797,193.699341 149.849823,191.716263 
	C148.147537,191.464233 146.866196,191.274521 146.049118,191.153549 
	C145.231049,193.809967 144.604111,195.845779 143.977173,197.881592 
	C143.977173,197.881592 144.004379,197.979919 143.601334,198.059204 
	C142.136169,200.766830 141.074036,203.395157 139.713867,206.316620 
	C127.829201,206.609772 116.242584,206.609772 104.023178,206.609772 
	C104.023178,192.004807 104.008186,177.558243 104.067673,163.111984 
	C104.070633,162.393188 104.720764,161.677048 105.127319,161.339539 
	C106.849480,164.541855 108.206322,167.611572 110.237999,170.138763 
	C115.564865,176.764786 115.924263,178.681732 112.053940,185.368011 
	C111.912796,185.611847 112.036293,186.008865 112.074066,186.486969 
	C112.221672,186.834564 112.386436,186.954651 112.730949,186.987854 
	C112.855911,186.976013 112.972549,187.198318 113.063660,187.589752 
	C117.107643,188.336655 121.056488,188.858887 125.015648,188.954529 
	C126.348724,188.986725 127.707985,187.935394 129.459320,187.286438 
	C131.506454,187.033005 133.149551,186.872437 134.826843,186.836426 
	C134.861053,186.960968 135.001038,187.178070 135.000565,187.540955 
	C134.125488,190.061264 133.250885,192.218674 132.376282,194.376099 
	C133.020981,194.609879 133.665680,194.843674 134.310379,195.077469 
	C135.193283,192.380051 136.076202,189.682632 137.337250,186.972229 
	C138.218872,186.937988 138.722382,186.916733 139.465149,187.026978 
	C140.143021,187.375580 140.581650,187.592682 141.020279,187.809784 
M141.626724,194.154572 
	C142.226395,193.730484 142.826065,193.306381 143.425735,192.882278 
	C143.254028,192.535095 143.082321,192.187927 142.910599,191.840744 
	C141.743484,192.440750 140.576355,193.040756 139.409225,193.640747 
	C139.953705,193.908340 140.498199,194.175934 141.626724,194.154572 
z"/>
<path fill="#981516" opacity="1.000000" stroke="none" 
	d="
M155.999847,194.999313 
	C155.214905,194.681351 154.429977,194.363403 153.324890,193.625259 
	C152.338943,191.800385 151.673126,190.395691 151.007324,188.991013 
	C149.195099,188.978027 147.380722,189.013809 145.571442,188.934036 
	C144.462448,188.885117 143.361267,188.659058 142.105362,188.203644 
	C144.357208,187.601669 146.760269,187.308609 150.019714,187.033005 
	C153.760468,187.004013 156.644867,186.957565 159.892548,186.766205 
	C161.262787,184.584518 162.010391,182.637207 158.693069,182.092636 
	C158.371887,182.068848 158.144897,181.910263 157.997498,180.966583 
	C157.909714,168.712418 157.836548,157.108521 157.763382,145.504639 
	C158.453720,144.857925 159.144073,144.211212 160.146103,143.199005 
	C160.813187,142.652802 160.918243,142.376816 160.772980,142.005508 
	C160.845459,141.843246 160.917923,141.680984 161.009705,140.999237 
	C160.979446,140.306381 160.929855,140.133011 160.880264,139.959625 
	C160.880264,139.959625 161.008087,140.091125 161.396332,140.061966 
	C162.180588,140.025223 162.576614,140.017639 163.034485,140.473511 
	C163.282043,157.957443 163.467743,174.977921 163.335449,191.912201 
	C162.378098,190.643341 161.738754,189.460709 160.491974,187.154449 
	C158.676910,190.324203 157.338379,192.661758 155.999847,194.999313 
z"/>
<path fill="#821719" opacity="1.000000" stroke="none" 
	d="
M179.989746,88.560623 
	C175.248413,89.323814 170.215805,89.746597 164.794052,90.681931 
	C163.992859,91.223373 163.580811,91.252274 163.089569,90.933601 
	C159.451324,89.027374 157.055634,90.566269 157.022873,94.669716 
	C156.945938,104.309105 157.147659,113.952911 156.923767,123.587669 
	C156.851807,126.684052 157.944458,128.142883 160.793457,128.756195 
	C160.788406,128.889786 160.891220,129.136597 160.551727,129.082794 
	C159.450516,129.333771 158.688828,129.638565 157.927139,129.943359 
	C157.927139,129.943359 158.003036,129.985504 157.729538,130.018219 
	C157.310715,130.138870 157.165390,130.226791 157.020065,130.314728 
	C156.343201,128.819641 155.170776,127.353256 155.082214,125.824097 
	C154.814575,121.202728 154.967621,116.556992 154.965424,110.993652 
	C154.949570,104.046654 154.924988,98.026764 154.900406,92.006866 
	C154.951309,91.558311 155.002228,91.109749 155.057114,90.080704 
	C155.005890,89.334709 154.950684,89.169212 154.895493,89.003708 
	C156.736145,88.626205 158.575333,87.936249 160.417694,87.927719 
	C166.844025,87.897957 173.271454,88.103874 179.989746,88.560623 
z"/>
<path fill="#742622" opacity="1.000000" stroke="none" 
	d="
M157.506546,145.596588 
	C157.836548,157.108521 157.909714,168.712418 157.965271,180.752365 
	C157.334961,180.644577 156.722260,180.100723 156.027252,178.906860 
	C155.736160,177.556992 155.527374,176.857132 155.318588,176.157288 
	C155.354706,168.364548 155.390808,160.571823 155.488525,152.133011 
	C155.576935,151.140213 155.439926,150.879501 155.139084,150.704773 
	C155.221390,149.841751 155.303696,148.978714 155.537048,147.636581 
	C155.874863,146.805161 156.061646,146.452866 156.248413,146.100555 
	C156.582184,145.963211 156.915939,145.825867 157.506546,145.596588 
z"/>
<path fill="#FDE1DE" opacity="1.000000" stroke="none" 
	d="
M143.435013,179.677902 
	C143.087097,168.968719 143.015030,157.949051 143.036438,146.469727 
	C143.426453,149.393524 143.953476,152.775635 143.972961,156.160675 
	C144.017517,163.895493 143.813751,171.631744 143.435013,179.677902 
z"/>
<path fill="#FDE1DE" opacity="1.000000" stroke="none" 
	d="
M142.262177,112.660187 
	C142.345062,112.287056 142.427948,111.913925 142.485474,110.918411 
	C142.358612,108.853584 142.257095,107.411133 142.248444,105.605789 
	C142.290207,103.495285 142.239090,101.747688 142.187958,100.000084 
	C142.164108,95.306175 142.140274,90.612259 142.081177,85.451965 
	C142.401108,87.655533 143.002625,90.320000 143.062347,92.996544 
	C143.204803,99.380379 143.091537,105.769913 142.850967,112.518448 
	C142.620377,112.879745 142.254486,112.720650 142.245026,112.705154 
	C142.235580,112.689667 142.262177,112.660187 142.262177,112.660187 
z"/>
<path fill="#A33C3A" opacity="1.000000" stroke="none" 
	d="
M162.972641,140.010056 
	C162.576614,140.017639 162.180588,140.025223 161.487930,140.057800 
	C161.111252,139.619553 161.031204,139.156296 160.943481,138.096573 
	C160.896347,137.334351 160.856888,137.168610 160.817413,137.002869 
	C160.859238,136.556122 160.901062,136.109390 160.939728,135.080124 
	C160.889633,134.333282 160.842682,134.168976 160.795715,134.004654 
	C160.831650,133.553528 160.867569,133.102386 160.899414,131.965973 
	C160.893967,130.565994 160.892593,129.851303 160.891220,129.136597 
	C160.891220,129.136597 160.788406,128.889786 161.161011,128.668274 
	C161.960251,126.292305 162.386887,124.137863 162.918030,122.442108 
	C163.005890,128.603882 162.989273,134.306961 162.972641,140.010056 
z"/>
<path fill="#950708" opacity="1.000000" stroke="none" 
	d="
M142.787369,141.662231 
	C137.708252,136.837875 137.447357,133.307220 142.223297,130.003876 
	C142.710312,133.652832 142.790756,137.424728 142.787369,141.662231 
z"/>
<path fill="#F5E7E5" opacity="1.000000" stroke="none" 
	d="
M154.627625,92.318375 
	C154.924988,98.026764 154.949570,104.046654 154.899628,110.529297 
	C154.668350,104.871323 154.511581,98.750610 154.627625,92.318375 
z"/>
<path fill="#950708" opacity="1.000000" stroke="none" 
	d="
M142.465515,121.986160 
	C138.244217,119.533051 139.381592,116.308121 141.865814,112.818466 
	C142.262177,112.660187 142.235580,112.689667 142.146851,113.190987 
	C142.092285,116.332069 142.126465,118.971840 142.160645,121.611603 
	C142.160645,121.611603 142.433914,121.817909 142.465515,121.986160 
z"/>
<path fill="#FDE1DE" opacity="1.000000" stroke="none" 
	d="
M159.529251,186.911102 
	C156.644867,186.957565 153.760468,187.004013 150.444580,186.960938 
	C152.994293,186.077896 155.975525,185.284363 159.342285,184.317627 
	C159.661621,185.066650 159.595428,185.988876 159.529251,186.911102 
z"/>
<path fill="#A21E24" opacity="1.000000" stroke="none" 
	d="
M184.155228,180.608124 
	C183.135727,180.035965 182.350906,179.317764 180.774002,177.874710 
	C182.428482,177.874710 183.299484,177.874710 184.485199,177.910461 
	C184.663239,178.784851 184.526581,179.623459 184.155228,180.608124 
z"/>
<path fill="#9D0F12" opacity="1.000000" stroke="none" 
	d="
M142.426392,121.264542 
	C142.126465,118.971840 142.092285,116.332069 142.156311,113.206482 
	C142.254486,112.720650 142.620377,112.879745 142.786743,112.989876 
	C142.866104,115.705833 142.779114,118.311653 142.426392,121.264542 
z"/>
<path fill="#742622" opacity="1.000000" stroke="none" 
	d="
M159.892548,186.766205 
	C159.595428,185.988876 159.661621,185.066650 159.448517,183.917572 
	C159.050919,183.340179 158.932602,182.989655 158.753677,182.365875 
	C162.010391,182.637207 161.262787,184.584518 159.892548,186.766205 
z"/>
<path fill="#FDE1DE" opacity="1.000000" stroke="none" 
	d="
M140.970459,187.461731 
	C140.581650,187.592682 140.143021,187.375580 139.353043,186.674057 
	C138.993042,185.466492 138.984406,184.743347 138.975754,184.020203 
	C138.975754,184.020203 139.423401,183.859314 139.657059,183.815262 
	C140.234024,184.885376 140.577332,185.999527 140.970459,187.461731 
z"/>
<path fill="#F5E7E5" opacity="1.000000" stroke="none" 
	d="
M160.551727,129.082794 
	C160.892593,129.851303 160.893967,130.565994 160.832993,131.632294 
	C160.025833,131.333603 159.281006,130.683319 158.231659,129.988205 
	C158.688828,129.638565 159.450516,129.333771 160.551727,129.082794 
z"/>
<path fill="#FDE1DE" opacity="1.000000" stroke="none" 
	d="
M177.276093,77.280426 
	C178.328812,77.068130 179.661835,77.152405 181.326920,77.472778 
	C180.291458,77.664909 178.923935,77.620949 177.276093,77.280426 
z"/>
<path fill="#F5E7E5" opacity="1.000000" stroke="none" 
	d="
M155.193085,176.395248 
	C155.527374,176.857132 155.736160,177.556992 155.900986,178.622681 
	C155.593857,178.203430 155.330719,177.418320 155.193085,176.395248 
z"/>
<path fill="#FDE1DE" opacity="1.000000" stroke="none" 
	d="
M185.250549,78.366791 
	C185.925293,78.210953 186.842896,78.316864 188.029297,78.649887 
	C187.363205,78.794182 186.428314,78.711357 185.250549,78.366791 
z"/>
<path fill="#A21E24" opacity="1.000000" stroke="none" 
	d="
M181.167908,183.887177 
	C181.094254,183.637665 181.254913,183.294006 181.636703,182.941223 
	C181.705978,183.219070 181.554092,183.506042 181.167908,183.887177 
z"/>
<path fill="#821719" opacity="1.000000" stroke="none" 
	d="
M182.944427,89.673409 
	C182.508163,89.814491 181.928055,89.663101 181.170013,89.261360 
	C181.594910,89.134315 182.197754,89.257622 182.944427,89.673409 
z"/>
<path fill="#A21E24" opacity="1.000000" stroke="none" 
	d="
M183.318909,175.877045 
	C183.183167,175.641678 182.957413,175.285355 182.974548,175.169403 
	C183.280579,175.410400 183.569473,175.767365 183.858368,176.124329 
	C183.723801,176.120361 183.589233,176.116379 183.318909,175.877045 
z"/>
<path fill="#FDE1DE" opacity="1.000000" stroke="none" 
	d="
M141.970306,84.722153 
	C141.686279,84.894432 141.437424,84.716156 141.234619,84.181351 
	C141.518066,84.018906 141.759674,84.201172 141.970306,84.722153 
z"/>
<path fill="#F5E7E5" opacity="1.000000" stroke="none" 
	d="
M155.086060,150.896927 
	C155.439926,150.879501 155.576935,151.140213 155.400894,151.663025 
	C155.084747,151.616531 155.011871,151.366516 155.086060,150.896927 
z"/>
<path fill="#F5E7E5" opacity="1.000000" stroke="none" 
	d="
M157.155212,130.438522 
	C157.165390,130.226791 157.310715,130.138870 157.701996,129.984619 
	C157.728760,130.132980 157.509552,130.347656 157.155212,130.438522 
z"/>
<path fill="#F5E7E5" opacity="1.000000" stroke="none" 
	d="
M160.659332,134.104004 
	C160.842682,134.168976 160.889633,134.333282 160.879425,134.747498 
	C160.722519,134.732697 160.622742,134.468033 160.659332,134.104004 
z"/>
<path fill="#F5E7E5" opacity="1.000000" stroke="none" 
	d="
M160.675720,137.098602 
	C160.856888,137.168610 160.896347,137.334351 160.875977,137.748566 
	C160.722092,137.729477 160.628067,137.461899 160.675720,137.098602 
z"/>
<path fill="#F5E7E5" opacity="1.000000" stroke="none" 
	d="
M160.727509,140.058990 
	C160.929855,140.133011 160.979446,140.306381 160.951935,140.739029 
	C160.720184,140.825790 160.545319,140.665955 160.424179,140.472488 
	C160.391205,140.419846 160.520126,140.265823 160.727509,140.058990 
z"/>
<path fill="#F5E7E5" opacity="1.000000" stroke="none" 
	d="
M160.584610,142.112244 
	C160.918243,142.376816 160.813187,142.652802 160.223862,142.900116 
	C160.031738,142.666611 160.167175,142.417358 160.584610,142.112244 
z"/>
<path fill="#F5E7E5" opacity="1.000000" stroke="none" 
	d="
M155.950272,146.219757 
	C156.061646,146.452866 155.874863,146.805161 155.434570,147.323639 
	C155.338089,147.106186 155.495117,146.722580 155.950272,146.219757 
z"/>
<path fill="#FDE1DE" opacity="1.000000" stroke="none" 
	d="
M142.119354,181.836121 
	C142.022537,181.614166 142.196136,181.289124 142.626572,180.846924 
	C142.718857,181.064194 142.554291,181.398605 142.119354,181.836121 
z"/>
<path fill="#A21E24" opacity="1.000000" stroke="none" 
	d="
M182.169937,182.785980 
	C182.004349,182.522903 182.173325,182.280457 182.663879,182.039490 
	C182.856216,182.308411 182.695908,182.563629 182.169937,182.785980 
z"/>
<path fill="#F5E7E5" opacity="1.000000" stroke="none" 
	d="
M154.740479,89.093857 
	C154.950684,89.169212 155.005890,89.334709 154.979401,89.748825 
	C154.793640,89.726288 154.689560,89.455139 154.740479,89.093857 
z"/>
<path fill="#9B0E12" opacity="1.000000" stroke="none" 
	d="
M117.386009,89.805222 
	C122.937279,93.267334 124.257912,98.747681 119.777847,103.422249 
	C115.465935,107.921394 110.234261,111.539032 104.885284,115.468895 
	C104.238708,108.596603 104.113548,101.799400 103.993103,94.603218 
	C103.834770,92.628029 103.671722,91.051826 103.542770,89.805222 
	C108.329056,89.805222 112.857529,89.805222 117.386009,89.805222 
z"/>
<path fill="#800D0F" opacity="1.000000" stroke="none" 
	d="
M103.988388,95.002205 
	C104.113548,101.799400 104.238708,108.596603 104.642883,115.704193 
	C104.931580,117.730019 104.941261,119.445465 104.735184,121.681564 
	C104.621490,122.468307 104.723564,122.734398 104.825638,123.000488 
	C104.976387,125.902168 105.127136,128.803848 105.623039,132.078476 
	C105.962311,132.625839 105.956436,132.800247 105.950562,132.974655 
	C105.434013,135.140564 104.917458,137.306473 104.741638,140.183624 
	C105.078094,147.583145 105.073822,154.271408 105.069550,160.959671 
	C104.720764,161.677048 104.070633,162.393188 104.067673,163.111984 
	C104.008186,177.558243 104.023178,192.004807 104.023178,206.609772 
	C116.242584,206.609772 127.829201,206.609772 140.132874,206.317047 
	C141.408020,206.056839 141.966095,206.089355 142.524185,206.121872 
	C142.072830,206.537231 141.621460,206.952576 140.736084,207.627655 
	C139.840302,208.085526 139.378540,208.283691 138.916779,208.481857 
	C137.578583,208.523590 136.240402,208.565308 134.391769,208.399796 
	C133.554337,208.311310 133.227341,208.430069 132.900345,208.548828 
	C123.129211,208.548828 113.358086,208.548828 102.732498,208.548828 
	C102.732498,192.886459 102.732498,177.488937 102.846939,161.275635 
	C102.889580,160.223740 102.817764,159.987625 102.745941,159.751495 
	C102.711220,157.861053 102.676498,155.970612 102.813995,153.206161 
	C102.997856,133.221542 103.009506,114.110939 103.262955,95.000824 
	C103.504761,95.001305 103.988388,95.002205 103.988388,95.002205 
z"/>
<path fill="#970E12" opacity="1.000000" stroke="none" 
	d="
M89.109177,92.258011 
	C89.109177,92.258011 89.125710,92.675186 88.739960,93.157730 
	C88.236069,105.118141 88.117943,116.596024 87.627029,128.031509 
	C86.513603,128.036758 85.772957,128.084396 84.623192,128.034790 
	C83.782562,126.618469 82.990273,125.303055 82.976936,123.979790 
	C82.874878,113.859428 82.875816,103.737045 82.977547,93.616631 
	C82.993500,92.030334 83.681427,90.450790 84.058632,88.868118 
	C84.770035,88.901947 85.481438,88.935776 86.918633,89.033630 
	C88.132675,90.151115 88.620926,91.204559 89.109177,92.258011 
z"/>
<path fill="#8C3A39" opacity="1.000000" stroke="none" 
	d="
M83.856163,88.544998 
	C83.681427,90.450790 82.993500,92.030334 82.977547,93.616631 
	C82.875816,103.737045 82.874878,113.859428 82.976936,123.979790 
	C82.990273,125.303055 83.782562,126.618469 84.615326,128.227020 
	C85.016594,128.516510 85.021622,128.903580 85.021622,128.903580 
	C82.974121,130.752167 81.249283,130.863983 81.224121,127.611084 
	C81.128181,115.207253 81.174934,102.801460 81.338509,90.398636 
	C81.348206,89.663002 82.847542,88.947006 83.856163,88.544998 
z"/>
<path fill="#851719" opacity="1.000000" stroke="none" 
	d="
M89.557922,92.185600 
	C88.620926,91.204559 88.132675,90.151115 87.275421,89.023117 
	C87.115372,88.707939 87.330887,88.251518 87.532326,88.257645 
	C97.282448,88.554268 107.031334,88.890793 117.083191,89.514038 
	C112.857529,89.805222 108.329056,89.805222 103.542770,89.805222 
	C103.671722,91.051826 103.834770,92.628029 103.993103,94.603218 
	C103.988388,95.002205 103.504761,95.001305 103.214691,94.668839 
	C102.551025,93.618645 102.177429,92.900909 101.803825,92.183182 
	C97.871437,92.159851 93.939049,92.136520 89.557922,92.185600 
z"/>
<path fill="#6D221E" opacity="1.000000" stroke="none" 
	d="
M83.977463,148.976135 
	C83.652023,151.209610 83.076393,153.439697 83.045959,155.677185 
	C82.934952,163.837784 83.005966,172.000854 82.990791,180.640259 
	C82.538979,179.759491 81.755653,178.408722 81.727295,177.042282 
	C81.546005,168.306671 81.461632,159.567017 81.536446,150.830338 
	C81.547462,149.543930 82.572212,148.266174 83.533241,147.227966 
	C83.951530,147.973068 83.964493,148.474594 83.977463,148.976135 
z"/>
<path fill="#874044" opacity="1.000000" stroke="none" 
	d="
M85.469772,128.836121 
	C85.021622,128.903580 85.016594,128.516510 85.024460,128.324280 
	C85.772957,128.084396 86.513603,128.036758 87.729813,128.236389 
	C88.388054,128.749573 88.635979,128.921371 88.949158,128.999039 
	C89.034790,134.341995 89.120415,139.684967 88.846161,145.479279 
	C88.486282,145.930649 87.996658,145.922897 87.996658,145.922897 
	C87.996658,145.922897 87.518066,145.875931 86.930740,145.911819 
	C85.883408,145.940506 85.423393,145.933319 84.963379,145.926117 
	C87.669479,142.837814 88.202332,133.259979 85.469772,128.836121 
z"/>
<path fill="#8C1D1F" opacity="1.000000" stroke="none" 
	d="
M135.206268,104.900551 
	C135.871002,110.761299 132.963928,114.938530 125.958298,117.646133 
	C128.720612,113.396431 131.848862,109.263382 135.206268,104.900551 
z"/>
<path fill="#8C1D1F" opacity="1.000000" stroke="none" 
	d="
M106.174942,133.233490 
	C105.956436,132.800247 105.962311,132.625839 105.971344,132.189697 
	C107.401131,130.939667 108.827766,129.951355 110.579132,128.908127 
	C111.534897,132.470276 109.719490,133.711868 106.174942,133.233490 
z"/>
<path fill="#8C1D1F" opacity="1.000000" stroke="none" 
	d="
M122.633377,120.008797 
	C123.530884,123.406555 121.803291,124.432343 118.228806,123.889488 
	C119.306145,122.589157 120.811302,121.343918 122.633377,120.008797 
z"/>
<path fill="#8C1D1F" opacity="1.000000" stroke="none" 
	d="
M115.048653,125.626930 
	C116.415222,129.093094 113.926811,128.906113 111.267128,128.930481 
	C112.159843,127.842049 113.461807,126.793648 115.048653,125.626930 
z"/>
<path fill="#851112" opacity="1.000000" stroke="none" 
	d="
M84.724739,145.978577 
	C85.423393,145.933319 85.883408,145.940506 86.691154,145.932037 
	C86.211098,146.853241 85.383308,147.790131 84.266495,148.851562 
	C83.964493,148.474594 83.951530,147.973068 83.894875,147.098007 
	C83.931870,146.373474 84.143509,146.142334 84.724739,145.978577 
z"/>
<path fill="#8C1D1F" opacity="1.000000" stroke="none" 
	d="
M125.266724,117.701447 
	C124.922470,118.375015 124.305855,119.174217 123.303589,119.960617 
	C123.610077,119.240906 124.302223,118.533997 125.266724,117.701447 
z"/>
<path fill="#8C1D1F" opacity="1.000000" stroke="none" 
	d="
M117.570938,123.840973 
	C117.319420,124.415428 116.788101,125.042122 115.917587,125.507217 
	C116.149300,124.861481 116.720222,124.377350 117.570938,123.840973 
z"/>
<path fill="#9B0E12" opacity="1.000000" stroke="none" 
	d="
M104.901222,122.750076 
	C104.723564,122.734398 104.621490,122.468307 104.659927,122.104691 
	C104.859222,122.171326 104.918015,122.335495 104.901222,122.750076 
z"/>
<path fill="#A00A10" opacity="1.000000" stroke="none" 
	d="
M141.786224,99.994118 
	C142.239090,101.747688 142.290207,103.495285 141.708435,105.594238 
	C140.717026,105.962196 140.358521,105.978813 140.000000,105.995422 
	C139.530502,105.676445 139.060989,105.357468 138.293304,105.016663 
	C137.998215,100.642212 138.001312,96.289581 138.008133,91.473450 
	C141.230042,91.029984 141.689301,92.406761 140.055420,94.982788 
	C138.737900,97.060043 137.645676,99.198563 141.786224,99.994118 
z"/>
<path fill="#8D6765" opacity="1.000000" stroke="none" 
	d="
M101.827110,92.638329 
	C102.177429,92.900909 102.551025,93.618645 102.972885,94.668350 
	C103.009506,114.110939 102.997856,133.221542 102.842392,152.802032 
	C102.507736,149.986526 102.177498,146.702347 102.149544,143.415573 
	C102.006874,126.641899 101.942299,109.867577 101.827110,92.638329 
z"/>
<path fill="#851112" opacity="1.000000" stroke="none" 
	d="
M87.997009,146.399384 
	C87.996658,145.922897 88.486282,145.930649 88.731125,145.930359 
	C89.055573,149.263168 89.135185,152.596268 89.073776,156.843781 
	C89.152588,166.217773 89.372421,174.677353 89.592262,183.136932 
	C89.610039,183.520370 89.627815,183.903824 89.407669,184.784943 
	C89.066406,185.855820 88.963074,186.429016 88.859734,187.002213 
	C88.286545,186.072052 87.204376,185.134903 87.217056,184.212799 
	C87.388191,171.765945 87.711632,159.321167 87.997009,146.399384 
z"/>
<path fill="#851719" opacity="1.000000" stroke="none" 
	d="
M89.009872,128.533218 
	C88.635979,128.921371 88.388054,128.749573 88.102600,128.278778 
	C88.117943,116.596024 88.236069,105.118141 88.634598,93.337936 
	C88.966858,104.712875 89.018730,116.390137 89.009872,128.533218 
z"/>
<path fill="#CC6C6D" opacity="1.000000" stroke="none" 
	d="
M89.739929,182.679443 
	C89.372421,174.677353 89.152588,166.217773 89.063286,157.291306 
	C89.425079,165.290268 89.656342,173.756104 89.739929,182.679443 
z"/>
<path fill="#981516" opacity="1.000000" stroke="none" 
	d="
M144.272583,197.810394 
	C144.604111,195.845779 145.231049,193.809967 146.049118,191.153549 
	C146.866196,191.274521 148.147537,191.464233 149.849823,191.716263 
	C148.660797,193.699341 147.838852,195.070160 146.963898,196.787598 
	C146.129898,197.335876 145.348953,197.537537 144.272583,197.810394 
z"/>
<path fill="#981516" opacity="1.000000" stroke="none" 
	d="
M146.918793,197.389160 
	C148.119385,196.899109 149.355911,196.690720 150.932968,197.030701 
	C152.650299,199.152451 153.781067,200.709625 150.982529,202.008713 
	C150.135101,201.038757 149.287689,200.068817 148.095184,199.087463 
	C147.485001,198.607651 147.219879,198.139236 146.918793,197.389160 
z"/>
<path fill="#981516" opacity="1.000000" stroke="none" 
	d="
M142.760742,205.848251 
	C141.966095,206.089355 141.408020,206.056839 140.430923,206.023895 
	C141.074036,203.395157 142.136169,200.766830 143.550415,198.062225 
	C143.600800,200.515503 143.299042,203.045059 142.760742,205.848251 
z"/>
<path fill="#CC6C6D" opacity="1.000000" stroke="none" 
	d="
M89.829056,204.883606 
	C89.523560,201.713455 89.364357,198.149902 89.428574,194.235565 
	C89.759781,197.419922 89.867569,200.955063 89.829056,204.883606 
z"/>
<path fill="#CC6C6D" opacity="1.000000" stroke="none" 
	d="
M88.901367,187.358337 
	C88.963074,186.429016 89.066406,185.855820 89.370300,185.070847 
	C89.678650,186.664200 89.786430,188.469345 89.733139,190.701813 
	C89.362373,189.990906 89.152687,188.852676 88.901367,187.358337 
z"/>
<path fill="#B55959" opacity="1.000000" stroke="none" 
	d="
M139.192291,208.621460 
	C139.378540,208.283691 139.840302,208.085526 140.563477,207.891083 
	C140.372513,208.183563 139.920151,208.472321 139.192291,208.621460 
z"/>
<path fill="#B55959" opacity="1.000000" stroke="none" 
	d="
M133.202881,208.663010 
	C133.227341,208.430069 133.554337,208.311310 133.991394,208.359375 
	C133.902786,208.609879 133.704117,208.693527 133.202881,208.663010 
z"/>
<path fill="#8D6765" opacity="1.000000" stroke="none" 
	d="
M102.595100,159.903473 
	C102.817764,159.987625 102.889580,160.223740 102.872131,160.818802 
	C102.670006,160.803650 102.557129,160.429550 102.595100,159.903473 
z"/>
<path fill="#FCF7F6" opacity="1.000000" stroke="none" 
	d="
M163.034485,140.473511 
	C162.989273,134.306961 163.005890,128.603882 162.971161,122.117065 
	C162.885361,120.897079 162.850937,120.460823 162.902252,119.762161 
	C162.926239,119.326408 162.864471,119.153053 162.851959,118.517906 
	C162.781418,113.686943 162.661652,109.317772 162.663101,104.505386 
	C162.749893,100.055466 162.715500,96.048775 162.859131,91.887810 
	C163.037155,91.733543 163.168747,91.281174 163.168747,91.281174 
	C163.580811,91.252274 163.992859,91.223373 164.691452,91.072845 
	C165.434677,91.008125 165.891373,91.065025 167.046661,91.130447 
	C168.488388,91.075195 169.231552,91.011414 169.974701,90.947632 
	C171.586960,91.116142 173.199234,91.284660 175.793930,91.555862 
	C175.793930,99.098106 175.793930,106.586006 175.757446,114.997589 
	C175.834122,140.236145 175.899612,164.551392 176.093765,188.865616 
	C176.142593,194.978790 176.603851,201.088669 176.875565,207.200073 
	C178.208557,209.603165 179.707275,211.933029 180.813049,214.436478 
	C181.488403,215.965485 182.184280,217.989975 181.683823,219.357468 
	C181.346970,220.277939 178.952087,220.803970 177.449341,220.871628 
	C172.978058,221.072937 168.465881,221.244583 164.026413,220.826035 
	C162.333664,220.666458 160.795029,218.872269 159.115112,217.435303 
	C159.044067,217.047562 159.065628,217.058105 159.314697,216.847672 
	C160.570190,215.036041 161.576614,213.434845 162.652161,211.734558 
	C162.721298,211.635468 162.795990,211.405655 162.973480,211.209427 
	C163.332962,210.354935 163.514938,209.696686 163.812210,208.581207 
	C163.836151,202.748795 163.744812,197.373596 163.653442,191.998413 
	C163.467743,174.977921 163.282043,157.957443 163.034485,140.473511 
z"/>
<path fill="#774A47" opacity="1.000000" stroke="none" 
	d="
M176.960190,206.724792 
	C176.603851,201.088669 176.142593,194.978790 176.093765,188.865616 
	C175.899612,164.551392 175.834122,140.236145 175.825409,115.462334 
	C176.261612,116.564568 176.875366,118.124420 176.882751,119.687141 
	C176.990494,142.476944 177.017181,165.267136 177.107330,188.523315 
	C177.115891,194.742783 177.080353,200.496140 176.960190,206.724792 
z"/>
<path fill="#821719" opacity="1.000000" stroke="none" 
	d="
M169.793793,90.705544 
	C169.231552,91.011414 168.488388,91.075195 167.382538,91.040825 
	C167.884186,90.782936 168.748550,90.623199 169.793793,90.705544 
z"/>
<path fill="#9B0D0F" opacity="1.000000" stroke="none" 
	d="
M163.335449,191.912201 
	C163.744812,197.373596 163.836151,202.748795 163.559601,208.747452 
	C163.059799,210.049164 162.927887,210.727417 162.795990,211.405655 
	C162.795990,211.405655 162.721298,211.635468 162.299423,211.514771 
	C155.771851,210.716232 160.235565,215.285583 159.065628,217.058105 
	C159.065628,217.058105 159.044067,217.047562 159.048798,217.060364 
	C158.295410,217.048080 157.537292,217.022995 156.400299,216.992264 
	C154.373016,212.237289 152.724609,207.487946 151.029358,202.373657 
	C153.781067,200.709625 152.650299,199.152451 151.136261,197.289551 
	C152.618347,196.579117 154.237656,196.158249 155.928406,195.368347 
	C157.338379,192.661758 158.676910,190.324203 160.491974,187.154449 
	C161.738754,189.460709 162.378098,190.643341 163.335449,191.912201 
z"/>
<path fill="#FBF1F0" opacity="1.000000" stroke="none" 
	d="
M105.127319,161.339539 
	C105.073822,154.271408 105.078094,147.583145 104.996857,140.468979 
	C104.973557,139.879227 105.035767,139.715378 105.391426,139.222198 
	C106.094444,138.968658 106.504005,139.044449 106.913567,139.120239 
	C106.913567,139.120239 106.991745,139.040131 107.005600,139.401581 
	C109.764633,143.971054 112.509796,148.179092 115.254959,152.387131 
	C115.254959,152.387131 115.326607,152.599289 115.463074,152.978821 
	C116.326546,154.302109 117.053543,155.245880 117.780533,156.189651 
	C117.780533,156.189651 117.957161,155.991577 117.883606,156.334167 
	C118.049171,156.895920 118.288300,157.115097 118.527428,157.334259 
	C118.527428,157.334259 118.669456,157.291718 118.678650,157.629669 
	C119.060364,158.377808 119.432869,158.788010 119.805374,159.198196 
	C119.805374,159.198196 119.952904,159.014862 119.917648,159.402100 
	C120.470711,160.622543 121.059029,161.455734 121.647346,162.288925 
	C121.647346,162.288925 121.870232,161.961334 121.800781,162.424286 
	C122.296501,163.707916 122.861687,164.528595 123.426865,165.349258 
	C123.426865,165.349258 123.512611,165.406326 123.596291,165.760925 
	C124.394516,167.128387 125.109070,168.141251 125.823624,169.154099 
	C125.823624,169.154099 125.940338,169.080490 125.929779,169.465683 
	C127.882019,172.727570 129.844818,175.604263 131.807617,178.480942 
	C132.007416,178.923782 132.207214,179.366608 132.653305,180.208160 
	C133.154053,180.846954 133.408508,181.087006 133.662979,181.327072 
	C133.662979,181.327072 133.822037,181.095932 133.774963,181.481598 
	C134.098053,182.299561 134.468216,182.731827 134.838364,183.164108 
	C134.838364,183.164108 134.926712,183.060471 134.877838,183.448059 
	C134.816864,184.794388 134.804749,185.753128 134.792633,186.711884 
	C133.149551,186.872437 131.506454,187.033005 128.998581,187.181946 
	C123.080040,187.179657 118.026299,187.188995 112.972549,187.198334 
	C112.972549,187.198318 112.855911,186.976013 112.715805,186.823685 
	C112.462357,186.452896 112.282608,186.340607 112.036461,186.334503 
	C112.036293,186.008865 111.912796,185.611847 112.053940,185.368011 
	C115.924263,178.681732 115.564865,176.764786 110.237999,170.138763 
	C108.206322,167.611572 106.849480,164.541855 105.127319,161.339539 
z"/>
<path fill="#902C2C" opacity="1.000000" stroke="none" 
	d="
M115.441406,152.050140 
	C112.509796,148.179092 109.764633,143.971054 106.953247,139.421341 
	C109.800636,143.290817 112.714241,147.501984 115.441406,152.050140 
z"/>
<path fill="#902C2C" opacity="1.000000" stroke="none" 
	d="
M131.855240,178.069489 
	C129.844818,175.604263 127.882019,172.727570 125.868027,169.507309 
	C130.744904,169.917816 131.304214,173.802017 131.855240,178.069489 
z"/>
<path fill="#902C2C" opacity="1.000000" stroke="none" 
	d="
M134.826843,186.836426 
	C134.804749,185.753128 134.816864,184.794388 134.814240,183.472382 
	C135.950897,183.411942 137.102264,183.714767 138.614700,184.018890 
	C138.984406,184.743347 138.993042,185.466492 139.113800,186.542542 
	C138.722382,186.916733 138.218872,186.937988 137.008545,186.967270 
	C135.868179,187.042892 135.434601,187.110474 135.001038,187.178070 
	C135.001038,187.178070 134.861053,186.960968 134.826843,186.836426 
z"/>
<path fill="#950708" opacity="1.000000" stroke="none" 
	d="
M140.000122,106.402740 
	C140.358521,105.978813 140.717026,105.962196 141.615570,105.957138 
	C142.257095,107.411133 142.358612,108.853584 142.353760,110.655724 
	C141.498352,109.613632 140.749298,108.211845 140.000122,106.402740 
z"/>
<path fill="#902C2C" opacity="1.000000" stroke="none" 
	d="
M117.850883,155.775330 
	C117.053543,155.245880 116.326546,154.302109 115.526627,153.070984 
	C116.276215,153.642761 117.098724,154.501877 117.850883,155.775330 
z"/>
<path fill="#8C1D1F" opacity="1.000000" stroke="none" 
	d="
M112.791855,135.805466 
	C112.237061,136.048935 111.742249,135.995193 111.247437,135.941452 
	C111.358986,135.494629 111.470535,135.047821 111.582077,134.600998 
	C112.005325,134.903427 112.428574,135.205841 112.791855,135.805466 
z"/>
<path fill="#902C2C" opacity="1.000000" stroke="none" 
	d="
M125.882095,168.780197 
	C125.109070,168.141251 124.394516,167.128387 123.601074,165.812210 
	C124.328308,166.474686 125.134438,167.440491 125.882095,168.780197 
z"/>
<path fill="#902C2C" opacity="1.000000" stroke="none" 
	d="
M121.745071,161.911560 
	C121.059029,161.455734 120.470711,160.622543 119.831009,159.481720 
	C120.467339,159.960800 121.155067,160.747482 121.745071,161.911560 
z"/>
<path fill="#902C2C" opacity="1.000000" stroke="none" 
	d="
M123.569870,165.011810 
	C122.861687,164.528595 122.296501,163.707916 121.682388,162.585266 
	C122.326591,163.080307 123.019737,163.877350 123.569870,165.011810 
z"/>
<path fill="#902C2C" opacity="1.000000" stroke="none" 
	d="
M106.916946,138.812714 
	C106.504005,139.044449 106.094444,138.968658 105.380463,138.959549 
	C105.292870,138.511505 105.509697,137.996780 105.726517,137.482056 
	C106.124458,137.823105 106.522392,138.164154 106.916946,138.812714 
z"/>
<path fill="#902C2C" opacity="1.000000" stroke="none" 
	d="
M119.837173,158.866211 
	C119.432869,158.788010 119.060364,158.377808 118.630333,157.685883 
	C119.004868,157.780853 119.436913,158.157532 119.837173,158.866211 
z"/>
<path fill="#902C2C" opacity="1.000000" stroke="none" 
	d="
M134.868622,182.833832 
	C134.468216,182.731827 134.098053,182.299561 133.672821,181.577774 
	C134.044800,181.693359 134.471848,182.098450 134.868622,182.833832 
z"/>
<path fill="#902C2C" opacity="1.000000" stroke="none" 
	d="
M118.574135,157.058197 
	C118.288300,157.115097 118.049171,156.895920 117.786316,156.424622 
	C118.048676,156.375702 118.334755,156.578918 118.574135,157.058197 
z"/>
<path fill="#902C2C" opacity="1.000000" stroke="none" 
	d="
M133.666443,181.043320 
	C133.408508,181.087006 133.154053,180.846954 132.863022,180.337906 
	C133.107620,180.299133 133.388779,180.529343 133.666443,181.043320 
z"/>
<path fill="#902C2C" opacity="1.000000" stroke="none" 
	d="
M113.063660,187.589752 
	C118.026299,187.188995 123.080040,187.179657 128.594543,187.274811 
	C127.707985,187.935394 126.348724,188.986725 125.015648,188.954529 
	C121.056488,188.858887 117.107643,188.336655 113.063660,187.589752 
z"/>
<path fill="#981516" opacity="1.000000" stroke="none" 
	d="
M135.000565,187.540955 
	C135.434601,187.110474 135.868179,187.042892 136.630432,186.980255 
	C136.076202,189.682632 135.193283,192.380051 134.310379,195.077469 
	C133.665680,194.843674 133.020981,194.609879 132.376282,194.376099 
	C133.250885,192.218674 134.125488,190.061264 135.000565,187.540955 
z"/>
<path fill="#981516" opacity="1.000000" stroke="none" 
	d="
M141.334702,194.299042 
	C140.498199,194.175934 139.953705,193.908340 139.409225,193.640747 
	C140.576355,193.040756 141.743484,192.440750 142.910599,191.840744 
	C143.082321,192.187927 143.254028,192.535095 143.425735,192.882278 
	C142.826065,193.306381 142.226395,193.730484 141.334702,194.299042 
z"/>
<path fill="#9D0C10" opacity="1.000000" stroke="none" 
	d="
M151.004700,189.387726 
	C151.673126,190.395691 152.338943,191.800385 153.006439,193.600296 
	C152.339447,192.591843 151.670761,191.188156 151.004700,189.387726 
z"/>
<path fill="#902C2C" opacity="1.000000" stroke="none" 
	d="
M112.074066,186.486969 
	C112.282608,186.340607 112.462357,186.452896 112.590836,186.835541 
	C112.386436,186.954651 112.221672,186.834564 112.074066,186.486969 
z"/>
<path fill="#990B0D" opacity="1.000000" stroke="none" 
	d="
M163.089569,90.933601 
	C163.168747,91.281174 163.037155,91.733543 162.593124,92.190315 
	C162.280029,96.747589 162.410965,100.848099 162.541901,104.948601 
	C162.661652,109.317772 162.781418,113.686943 162.700546,118.614944 
	C162.605453,119.457367 162.710999,119.740959 162.816528,120.024559 
	C162.850937,120.460823 162.885361,120.897079 162.866653,121.658386 
	C162.386887,124.137863 161.960251,126.292305 161.166046,128.534668 
	C157.944458,128.142883 156.851807,126.684052 156.923767,123.587669 
	C157.147659,113.952911 156.945938,104.309105 157.022873,94.669716 
	C157.055634,90.566269 159.451324,89.027374 163.089569,90.933601 
z"/>
<path fill="#981516" opacity="1.000000" stroke="none" 
	d="
M159.314697,216.847672 
	C160.235565,215.285583 155.771851,210.716232 162.230286,211.613861 
	C161.576614,213.434845 160.570190,215.036041 159.314697,216.847672 
z"/>
<path fill="#A33C3A" opacity="1.000000" stroke="none" 
	d="
M162.663086,104.505386 
	C162.410965,100.848099 162.280029,96.747589 162.415100,92.344582 
	C162.715500,96.048775 162.749893,100.055466 162.663086,104.505386 
z"/>
<path fill="#981516" opacity="1.000000" stroke="none" 
	d="
M162.973480,211.209427 
	C162.927887,210.727417 163.059799,210.049164 163.444305,209.204681 
	C163.514938,209.696686 163.332962,210.354935 162.973480,211.209427 
z"/>
<path fill="#A33C3A" opacity="1.000000" stroke="none" 
	d="
M162.902252,119.762161 
	C162.710999,119.740959 162.605453,119.457367 162.651306,119.076736 
	C162.864471,119.153053 162.926239,119.326408 162.902252,119.762161 
z"/>
</svg>