<svg width="24" height="24" viewBox="0 0 24 24" fill="none" xmlns="http://www.w3.org/2000/svg">
<rect width="24" height="24" rx="2" fill="#FFFFFF"/>
<path d="M12 3.66667C12.9167 3.66667 13.6667 4.41667 13.6667 5.33333C13.6667 6.25 12.9167 7 12 7C11.0833 7 10.3333 6.25 10.3333 5.33333C10.3333 4.41667 11.0833 3.66667 12 3.66667ZM10.3333 18.6667C8.95 18.6667 7.83333 17.55 7.83333 16.1667C7.83333 15.075 8.53333 14.1583 9.5 13.8083V12.0833C7.6 12.4667 6.16667 14.15 6.16667 16.1667C6.16667 18.4667 8.03333 20.3333 10.3333 20.3333C12.35 20.3333 14.0333 18.9 14.4167 17H12.6917C12.35 17.9667 11.425 18.6667 10.3333 18.6667ZM19.075 19.075L4.925 4.925C4.6 4.6 4.075 4.6 3.75 4.925C3.425 5.25 3.425 5.775 3.75 6.1L10.3333 12.6833V14.5C10.3333 15.4167 11.0833 16.1667 12 16.1667H13.8083L17.8917 20.25C18.2167 20.575 18.7417 20.575 19.0667 20.25C19.4 19.925 19.4 19.4 19.075 19.075ZM17.1333 11.1083C16.0917 10.9333 15.1083 10.375 14.4417 9.64167L13.3667 8.45C13.1667 8.25 13 8.15 12.8417 8.06667C12.5417 7.90833 12.2417 7.81667 11.8417 7.85C11.4333 7.88333 11.0833 8.075 10.8167 8.35833L13.6667 11.2083C14.5 11.9 15.6667 12.4917 16.8333 12.725C17.35 12.8333 17.8333 12.4417 17.8333 11.9167C17.8333 11.5167 17.5333 11.175 17.1333 11.1083Z" fill="black"/>
</svg>
