<svg width="24" height="24" viewBox="0 0 24 24" fill="none" xmlns="http://www.w3.org/2000/svg">
<g clip-path="url(#clip0_1_7218)">
<circle cx="12" cy="10" r="7" fill="#white"/>
<g filter="url(#filter0_d_1_7218)">
<path d="M12 2C6.48 2 2 6.48 2 12C2 17.52 6.48 22 12 22C17.52 22 22 17.52 22 12C22 6.48 17.52 2 12 2ZM12 13C11.45 13 11 12.55 11 12V8C11 7.45 11.45 7 12 7C12.55 7 13 7.45 13 8V12C13 12.55 12.55 13 12 13ZM13 17H11V15H13V17Z" fill="#FFB800"/>
</g>
</g>
<defs>
<filter id="filter0_d_1_7218" x="2" y="0" width="20" height="23.325" filterUnits="userSpaceOnUse" color-interpolation-filters="sRGB">
<feFlood flood-opacity="0" result="BackgroundImageFix"/>
<feColorMatrix in="SourceAlpha" type="matrix" values="0 0 0 0 0 0 0 0 0 0 0 0 0 0 0 0 0 0 127 0" result="hardAlpha"/>
<feOffset/>
<feGaussianBlur stdDeviation="1"/>
<feComposite in2="hardAlpha" operator="out"/>
<feColorMatrix type="matrix" values="0 0 0 0 0 0 0 0 0 0 0 0 0 0 0 0 0 0 0.25 0"/>
<feBlend mode="normal" in2="BackgroundImageFix" result="effect1_dropShadow_1_7218"/>
<feBlend mode="normal" in="SourceGraphic" in2="effect1_dropShadow_1_7218" result="shape"/>
</filter>
<clipPath id="clip0_1_7218">
<rect width="24" height="24" fill="white"/>
</clipPath>
</defs>
</svg>
